<?xml version="1.0" encoding="utf-8"?>

<svg version="1.0" id="katman_1" xmlns="http://www.w3.org/2000/svg" xmlns:xlink="http://www.w3.org/1999/xlink" x="0px" y="0px"
	 viewBox="0 0 752.8 756.3" style="enable-background:new 0 0 752.8 756.3;" xml:space="preserve">
<style type="text/css">
	.st0{fill:#3B992B;}
	.st1{fill:#1D3B26;}
</style>
<path class="st0" d="M278.5,78.7l1.1-0.2l1.1-0.2l1-0.2l1-0.3l4.5-1.3l4.4-1.2l4.2-1.2l4.1-1.1l4-1l3.8-1l3.7-0.9l3.6-0.8l1.4-0.3
	l1.5-0.3l4-0.7l3.5-0.6l2.5-0.5l1.2-0.3l1.1-0.3l1.1-0.3l1-0.3l0.2-0.1l0.2-0.1l0.2-0.1l0.2-0.1l0.1-0.2l0.1-0.2l0.1-0.2l0.1-0.2
	l0.3-0.6l0.2-0.6l0.2-0.6l0.2-0.6l0.2-0.6l0.1-0.6l0.1-0.6l0.1-0.6l1.1-11.4l1.1-11.5l1.1-11.6l1.1-11.6l0.1-0.8l0.1-0.8l0.1-0.8
	l0.2-0.7l0.2-0.7l0.2-0.7l0.2-0.7l0.2-0.6l0.3-0.6l0.3-0.6l0.3-0.6l0.3-0.5l0.4-0.5l0.4-0.5l0.4-0.4l0.4-0.4l0,0l0,0l0,0l0.5-0.4
	l0.5-0.4l0.5-0.3l0.5-0.3l0.5-0.3l0.6-0.3l0.6-0.2l0.6-0.2l0.6-0.2l0.7-0.2l0.7-0.1l0.7-0.1l0.7-0.1l0.7-0.1l0.8-0.1l0.8,0l6.4-0.1
	l6.2-0.1l6.1-0.1l6,0l5.8,0l5.7,0.1l5.6,0.1l5.4,0.1l1.3,0.1l0.6,0.1l0.6,0.1l0.6,0.1l0.6,0.1l0.6,0.1l0.5,0.2l0.5,0.2l0.5,0.2
	l0.5,0.2l0.5,0.2l0.5,0.2l0.4,0.3l0.4,0.3l0.4,0.3l0.6,0.5l0.5,0.5l0.5,0.6l0.5,0.6l0.4,0.7l0.4,0.7l0.4,0.7l0.3,0.8l0.3,0.8
	l0.3,0.9l0.3,0.9l0.2,1l0.2,1l0.2,1.1l0.2,1.2l0.1,1.2l1.2,11.8l1.2,11.6l1.1,11.3l1,11.1l0.1,0.4l0.1,0.4l0.1,0.4l0.1,0.3l0.1,0.3
	l0.2,0.3l0.2,0.3l0.2,0.3l0,0l0,0l0,0l0,0L420,65l0.4,0.4l0.5,0.3l0.5,0.3l0.5,0.2l0.6,0.2l0.7,0.2l0.7,0.1l5.6,0.9l5.2,0.9l4.9,0.9
	l4.5,0.9l4.1,0.9l3.8,0.9l1.8,0.4l1.7,0.4l1.6,0.4l1.5,0.4l8,2.4l8,2.3l0.2,0l0.2,0l0.2,0l0.2-0.1l0.5-0.2l0.4-0.3l0.4-0.3l0.4-0.3
	l0,0l0,0l0.5-0.5l0.5-0.5l0.4-0.6l0.4-0.6l3.5-6.4l3.3-6L489,57l3.1-5.4l2.9-5.1l2.8-4.7l2.7-4.4l2.6-4.1l0.5-0.7l0.5-0.7l0.5-0.6
	l0.6-0.6l0.6-0.5l0.6-0.5l0.6-0.4l0.7-0.3l0.6-0.3l0.6-0.2l0.7-0.2l0.7-0.1l0.7-0.1l0.7-0.1l0.7,0l0.7,0l0.8,0.1l0.8,0.1l0.8,0.1
	l0.8,0.2l0.8,0.2l0.8,0.3l0.8,0.3l0.9,0.4l5.8,2.6l5.8,2.6l5.8,2.7l5.8,2.8l5.8,2.9l5.8,2.9l5.8,3l5.8,3.1l0.8,0.5l0.8,0.5l0.7,0.5
	l0.7,0.6l0.6,0.6l0.6,0.6l0.5,0.7l0.4,0.7l0,0l0.2,0.5l0.2,0.5l0.2,0.5l0.2,0.5l0.2,0.5l0.1,0.5l0.1,0.5l0.1,0.5l0.1,0.5l0.1,0.6
	l0,0.6l0,0.6v0.6l0,0.6l0,0.6l-0.1,0.6l-0.1,0.6l-0.1,0.7l-0.2,0.7l-0.2,0.8l-0.3,0.8l-0.3,0.8l-0.4,0.9l-0.4,0.9l-9.3,20.3
	l-10,21.6l-0.2,0.5l-0.2,0.5l-0.1,0.5l-0.1,0.4l0,0.4l0,0.4l0.1,0.4l0.1,0.4l0,0l0,0l0.1,0.3l0.2,0.3l0.2,0.3l0.2,0.3l0.2,0.3
	l0.3,0.3l0.3,0.3l0.3,0.2l4.9,3.5l4.9,3.6l5,3.8l5.1,3.9l5.2,4l5.2,4.1l5.3,4.3l5.3,4.4l0.6,0.5l0.6,0.4l0.5,0.3l0.5,0.2l0.5,0.2
	l0.5,0.1l0.5,0l0.5,0l0.3-0.1l0.4-0.1l1.2-0.5l1.2-0.5l0,0l0,0l0.7-0.4l0.7-0.4l0.7-0.4l0.7-0.4l4.9-3.2l4.9-3.1l4.9-3.1l4.9-3
	l4.9-3l4.9-2.9l4.9-2.9l4.9-2.9l0.6-0.3l0.6-0.3l0.6-0.3l0.6-0.2l0.6-0.2l0.6-0.2l0.6-0.2l0.6-0.2l0.6-0.1l0.6-0.1l0.5-0.1l0.6,0
	l0.5,0l0.5,0l0.5,0l0.5,0.1l0,0l0,0l0,0l0.5,0.1l0.5,0.1l0.5,0.1l0.4,0.1l0.4,0.2l0.5,0.2l0.9,0.4l0.9,0.5l0.9,0.6l0.8,0.7l0.8,0.8
	l1.1,1l1.1,1.1l1.1,1.2l1.1,1.2l1.1,1.3l1.1,1.4l1.2,1.4l1.2,1.5l5.2,6.8l5.3,6.8l5.4,6.9l5.5,7l0.6,0.8l0.6,0.8l0.5,0.8l0.5,0.8
	l0.4,0.8l0.4,0.8l0.3,0.8l0.3,0.8l0.3,0.8l0.2,0.8l0.2,0.8l0.1,0.8l0.1,0.8l0,0.8l0,0.8l-0.1,0.7l-0.1,0.6l-0.1,0.6l-0.2,0.6
	l-0.2,0.6l-0.2,0.6l-0.2,0.6l-0.3,0.6l-0.3,0.6l-0.3,0.6l-0.3,0.6l-0.4,0.6l-0.4,0.6l-0.5,0.6l-0.5,0.6l-0.5,0.6l-0.5,0.6l-3.6,3.5
	l-3.7,3.6l-3.8,3.7l-4,3.8l-4.1,3.9l-4.3,4l-4.4,4.1L656,218l-0.5,0.5L655,219l-0.5,0.5l-0.5,0.6l-0.4,0.6l-0.4,0.6l-0.4,0.6
	l-0.4,0.6l-0.1,0.2l-0.1,0.2l0,0l0,0.2l0,0.3l0.2,0.8l0.2,0.8l0.2,0.8l0.3,0.7l0.3,0.7l0.3,0.7l0.3,0.7l0.4,0.7l1.4,2.4l1.3,2.5
	l1.3,2.5l1.3,2.5l1.3,2.6l1.3,2.6l1.3,2.7l1.2,2.7l1.2,2.7l1.2,2.8l1.2,2.8l1.2,2.9l1.2,2.9l1.2,3l1.1,3l1.1,3l1.2,3.3l1.1,3.3
	l1.1,3.3l1.1,3.3l1,3.3l1,3.3l0.9,3.3l0.9,3.3l0.9,3.3l0.8,3.3l0.8,3.3l0.7,3.3l0.7,3.3l0.7,3.3l0.6,3.3l0.6,3.3l0.1,0.7l0.2,0.7
	l0.2,0.7l0.2,0.6l0.2,0.6l0.2,0.6l0.3,0.6l0.3,0.6l0.1,0.2l0.2,0.2l0.2,0.2l0.2,0.1l0.5,0.2l0.5,0.2l0.5,0.2l0.5,0.2l0.5,0.1
	l0.5,0.1l0.5,0.1l0.5,0.1l11,1.5l11,1.4l11.1,1.4l11.1,1.3l0.9,0.1l0.9,0.2l0.9,0.2l0.8,0.2l0.8,0.2l0.8,0.2l0.7,0.2l0.7,0.3
	l0.6,0.3l0.6,0.3l0.6,0.4l0.5,0.4l0.5,0.4l0.5,0.4l0.5,0.4l0.4,0.5l0.4,0.4l0.3,0.5l0.3,0.5l0.3,0.5l0.3,0.5l0.2,0.5l0.2,0.6
	l0.2,0.6l0.2,0.6l0.2,0.7l0.1,0.7l0.1,0.7l0.1,0.7l0.1,0.8l0,0.8l0,0.8l0.1,23.8l0,25.6l0,1l-0.1,1l-0.1,1l-0.2,1l-0.2,1l-0.3,0.9
	l-0.3,0.9l-0.4,0.8l-0.4,0.8l-0.4,0.7l-0.5,0.6l-0.5,0.6l-0.5,0.5l-0.6,0.5l-0.6,0.4l-0.6,0.3l-0.1,0l-0.7,0.3l-0.7,0.3l-0.8,0.2
	l-0.8,0.2l-0.8,0.2l-0.8,0.2l-0.8,0.1l-0.9,0.1l-22.1,2.6l-23.1,2.7l-0.3,0l-1.1,0.1l-0.8,0.1l-0.7,0.1l-0.6,0.2l-0.6,0.2l-0.5,0.3
	l-0.4,0.3l-0.4,0.4l-0.3,0.4l-0.2,0.5l-0.2,0.5l-0.1,0.6l-0.6,3.6l-0.6,3.6l-0.7,3.5l-0.7,3.5l-0.7,3.5l-0.8,3.5l-0.8,3.5l-0.8,3.5
	l-0.9,3.4l-0.9,3.4l-0.9,3.4l-1,3.4l-1,3.4l-1,3.3l-1.1,3.3l-1.1,3.3l-1.1,3.2l-1.2,3.2l-1.2,3.2l-1.2,3.2l-1.2,3.2l-1.3,3.1
	l-1.3,3.1l-1.3,3.1l-1.4,3.1l-1.4,3l-1.4,3l-1.5,3l-1.5,2.9l-1.5,2.9l-1.6,2.9l-1.6,2.9l-0.7,1.3l-0.6,1.3l-0.5,1.4l-0.5,1.4
	l-0.1,0.3l0,0.3l0,0.3l0,0.3l0.1,0.3l0.1,0.3l0.1,0.2l0.1,0.2l0.7,1l0.7,0.9l0.8,0.8l0.8,0.8l15,14.1l15.3,14.3l1.1,1.1l1,1l0.9,1
	l0.8,0.9l0.8,0.9l0.7,0.9l0.6,0.9l0.6,0.9l0.5,0.9l0.4,0.9l0.3,0.9l0.3,0.9l0.2,0.9l0.1,0.9l0.1,0.9l0,0.9l0,0.5l-0.1,0.5l-0.1,0.5
	l-0.1,0.5l-0.1,0.5l-0.2,0.5l-0.2,0.5l-0.2,0.5l-0.4,1l-0.5,1l-0.5,1l-0.6,1l-0.6,1l-0.7,1.1l-0.8,1.1l-0.8,1.1l-6.7,8.9l-6.6,8.5
	l-6.4,8.2l-6.2,7.8l-0.7,0.8l-0.7,0.8l-0.7,0.8l-0.7,0.7l-0.8,0.7l-0.8,0.6l-0.8,0.6l-0.8,0.5l-0.8,0.4l-0.8,0.4l-0.8,0.3l-0.8,0.3
	l-0.8,0.2l-0.8,0.2l-0.8,0.1l-0.8,0.1h-0.6l-0.6,0l-0.6-0.1l-0.6-0.1l-0.6-0.1l-0.6-0.2l-0.6-0.2l-0.6-0.2l-1.2-0.5l-1.2-0.5
	l-1.2-0.6l-1.2-0.6l-1.2-0.7l-1.2-0.7l-1.2-0.8l-1.2-0.8l-4.5-2.9l-4.5-3l-4.5-3l-4.5-3.1l-4.5-3.1l-4.6-3.1l-4.6-3.2l-4.6-3.2
	l-0.3-0.2l-0.3-0.2l-0.3-0.1l-0.3-0.1l-0.3-0.1l-0.3-0.1l-0.3,0l-0.3,0l-0.4,0l-0.4,0l-0.4,0.1l-0.4,0.1l-0.4,0.2l-0.4,0.2l-0.4,0.2
	l-0.4,0.3l-1.7,1.3l-1.7,1.4l-3.7,3.1l-3.5,2.9l-3.3,2.7l-3.2,2.6l-3,2.4l-2.8,2.2l-2.7,2l-2.5,1.9l-3.3,2.4l-3.2,2.4l-3.2,2.4
	l-3.1,2.4l-0.3,0.2l-0.3,0.2l-0.2,0.2l-0.2,0.2l-0.2,0.3l-0.2,0.2l-0.1,0.3l-0.1,0.3l-0.1,0.3l0,0.3v0.3l0,0.4l0.1,0.4l0.1,0.4
	l0.3,1.1l0.3,1.1l0.2,0.7l0.2,0.7l0.2,0.6l0.3,0.6l4.5,9.5l4.4,9.4l4.2,9.2l4.1,9.1l0.6,1.4l0.5,1.2l0.5,1.2l0.4,1.1l0.3,1l0.3,1
	l0.2,1l0.2,1l0.1,0.9l0.1,0.9v0.9l0,0.8l-0.1,0.8l-0.2,0.8l-0.2,0.8l-0.3,0.7l-0.2,0.5l-0.2,0.5l-0.3,0.5l-0.3,0.5l-0.3,0.4
	l-0.3,0.4l-0.4,0.4l-0.4,0.4l-0.6,0.5l-0.8,0.6l-1,0.7l-1.2,0.7l-1.4,0.8l-1.6,0.9l-1.8,1l-2,1l-5.2,2.7l-5.1,2.6l-5,2.5l-4.9,2.4
	l-4.8,2.3l-4.7,2.2l-4.6,2.2l-4.5,2.1l-0.3,0.1l0,0l0,0l-0.9,0.4l-0.9,0.4l-0.9,0.3l-0.9,0.3l-0.9,0.2l-1,0.2l-1,0.2l-1,0.1
	l-0.5,0.1l-0.5,0l-0.5,0l-0.5,0l-0.5,0l-0.5-0.1l-0.5-0.1l-0.5-0.1l-0.6-0.2l-0.6-0.2l-0.6-0.3l-0.6-0.3l-0.6-0.4l-0.6-0.4l-0.6-0.5
	l-0.6-0.5l-0.6-0.6l-0.5-0.6l-0.5-0.7l-0.5-0.7l-0.5-0.8l-0.6-0.8l-0.6-0.9l-0.6-1.1l-3.8-6.4l-3.4-6l-3.1-5.6l-1.4-2.6l-1.3-2.5
	l-1.4-2.6l-1.3-2.5l-1.3-2.4l-1.3-2.4l-1.3-2.3l-1.3-2.2l-1.3-2.2l-1.3-2.1l-0.2-0.2l-0.2-0.2l0,0l-0.2-0.1l-0.2-0.1l-0.6-0.2
	l-0.6-0.1l0,0l-0.6,0l-0.6,0l-0.6,0.1l-0.6,0.1l-3.1,0.9l-3.1,0.9l-3.1,0.8l-3.1,0.8l-3.1,0.8l-3.1,0.8l-3.1,0.7l-3,0.7l-3,0.7
	l-3,0.6l-3,0.6l-3,0.6l-3,0.6l-3,0.5l-3,0.5l-3,0.5l-0.5,0.1l-0.5,0.1l-0.5,0.2l-0.4,0.2l-0.4,0.2l-0.4,0.2l-0.3,0.3l-0.3,0.3l0,0
	l-0.3,0.3l-0.2,0.4l-0.2,0.4l-0.2,0.4l-0.1,0.4l-0.1,0.5l-0.1,0.5l-0.1,0.5l-1.6,16.6l-1.4,13.9l-1.2,11.1l-0.5,4.5l-0.5,3.8
	l-0.2,1.1l-0.2,1l-0.3,1l-0.3,0.9l-0.4,0.9l-0.5,0.8l-0.5,0.8l-0.6,0.7l0,0l0,0l0,0l0,0l-0.3,0.4l-0.4,0.4l-0.4,0.3l-0.4,0.3
	l-0.4,0.3l-0.4,0.3l-0.5,0.3l-0.5,0.2l-0.4,0.2l-0.4,0.2l-0.4,0.2l-0.5,0.1l-1.1,0.2l-1.2,0.2l-1.4,0.2l-1.5,0.1l-1.6,0.1l-1.8,0
	l-10,0l-10.3,0h-10.6l-10.8,0h-0.8l-2.1,0l-1.6-0.1l-0.7-0.1l-0.7-0.1l-0.7-0.1l-0.6-0.1l-0.6-0.2l-0.6-0.2l-0.6-0.2l-0.5-0.2
	l-0.5-0.2l-0.5-0.3l-0.4-0.3l-0.4-0.3l-0.6-0.5l-0.6-0.6l0,0l-0.4-0.4l-0.3-0.4l-0.3-0.4l-0.3-0.5l-0.3-0.5l-0.3-0.5l-0.2-0.5
	l-0.2-0.5l-0.2-0.5L340,748l-0.2-0.6l-0.1-0.6l-0.1-0.6l-0.1-0.6l-0.2-1.3l-1.2-11.8l-1.2-11.6l-1.1-11.4l-1.1-11.2l-0.2-1.5
	l-0.2-1.1l-0.2-1l-0.2-0.8l-0.1-0.4l-0.2-0.4l-0.2-0.3l-0.2-0.3l-0.2-0.3l-0.2-0.3l-0.2-0.3l-0.3-0.2l-0.3-0.3l-0.3-0.2l-0.4-0.2
	l-0.4-0.2l-0.4-0.2l-0.5-0.1l-0.5-0.1l-0.5-0.1l-3-0.5l-3.1-0.5l-3.1-0.5l-3.1-0.6l-3.1-0.6l-3.1-0.6l-3.1-0.7l-3.1-0.7l-3.1-0.7
	l-3.1-0.7l-3.1-0.8l-3.1-0.8l-3.1-0.8l-3.1-0.8l-3.1-0.9l-3.1-0.9l-0.4-0.1l-0.4,0l-0.4,0L278,679l-0.4,0.1l-0.3,0.2l-0.3,0.2
	l-0.3,0.3l-1,1.2l-0.9,1.2l-0.8,1.3l-0.8,1.3l-2,3.8l-2.1,3.9l-2.2,4l-2.4,4.2l-5,8.8l-5.4,9.4l-0.1,0.2l-1.4,2.4l-0.6,0.9l-0.5,0.8
	L251,724l-0.5,0.7l-0.5,0.7l-0.5,0.6l-0.5,0.6l-0.5,0.6l-0.5,0.5l-0.5,0.5l-0.6,0.4l-0.6,0.4l-0.6,0.4l-0.6,0.3l-0.8,0.4l-0.8,0.3
	l-0.8,0.2l-0.8,0.2l-0.7,0.1l-0.7,0.1l-0.7,0l-0.7,0l-0.7,0l-0.7-0.1l-0.8-0.1l-0.8-0.2l-0.8-0.2l-0.8-0.2l-0.8-0.3l-0.9-0.3
	l-0.9-0.4l-1-0.4l-2.5-1.2l-4.3-2.1l-4.5-2.2l-4.6-2.3l-4.8-2.4l-5-2.5l-5.1-2.7l-5.3-2.8l-5.5-2.9l-1-0.6l-1-0.6l-1-0.6l-1-0.7
	l-0.6-0.4l-0.5-0.5l-0.5-0.5l-0.5-0.5l-0.4-0.5l-0.4-0.5l-0.4-0.6l-0.3-0.6l-0.4-0.7l-0.3-0.8l-0.3-0.8l-0.2-0.8l-0.1-0.8l-0.1-0.9
	l0-0.9v-0.9l0.1-0.9l0.1-1l0.2-1l0.2-1l0.3-1l0.3-1l0.4-1l0.4-1l2.2-5l2.3-5l2.3-5l2.3-5l2.3-5l2.4-5l2.4-5l2.4-5l0.5-1.2l0.4-1
	l0.1-0.5l0.1-0.4l0.1-0.4l0.1-0.4l0.1-0.4l0-0.4l0-0.3l0-0.3l-0.1-0.3l-0.1-0.3l-0.1-0.2l-0.1-0.2l-0.1-0.1l-0.7-0.8l-0.8-0.8
	l-0.8-0.7l-0.8-0.7l-3.6-2.7l-5-3.7l-4.5-3.3l-3.2-2.5l-2.9-2.3l-2.6-2.1l-4.2-3.5l-4.2-3.5l-4.2-3.6l-4.1-3.6l-0.3-0.2l-0.3-0.2
	l-0.3-0.2l-0.3-0.2l0,0l0,0l0,0l-0.4-0.2l-0.5-0.2l-0.5-0.1l-0.5-0.1l-0.2,0l-0.2,0l0,0l-0.2,0.1l-0.2,0.1l-1,0.5l-1.4,0.7l-1,0.5
	l-0.9,0.5l-0.7,0.5l-4.6,3.2l-4.7,3.1l-4.7,3.1l-4.7,3.1l-4.7,3.1l-4.7,3l-4.8,3l-4.8,3l-1.2,0.7l-1.2,0.7l-1.2,0.6l-1.2,0.6
	l-1.2,0.5l-1.2,0.4l-1.2,0.3l-1.1,0.3l-0.5,0.1l-0.5,0.1l-0.5,0l-0.5,0l-0.7,0l-0.7-0.1l-0.7-0.1l-0.7-0.2l-0.7-0.2l-0.7-0.3
	l-0.7-0.4l-0.7-0.4l-0.7-0.5l-0.7-0.5l-0.7-0.6l-0.7-0.6l-0.7-0.7l-0.7-0.8l-0.7-0.8l-0.7-0.9l-5.4-6.8l-4.9-6.2l-4.4-5.7l-3.9-5.1
	l-3.4-4.5l-2.9-3.9l-2.4-3.4l-1.9-2.8l-0.6-1l-0.6-1l-0.5-1l-0.4-1l-0.3-1l-0.1-0.5l-0.1-0.5l-0.1-0.5l0-0.5l0-0.5l0-0.5l0-0.8
	l0.1-0.8l0.2-0.8l0.2-0.8l0.3-0.9l0.3-0.8l0.4-0.9l0.5-0.9l0.6-0.9l0.6-0.9l0.7-0.9l0.8-0.9l0.8-1l0.9-1l1-1.1l1.2-1.1l7.1-6.8
	l7.1-6.7l7-6.6l6.9-6.4l0.8-0.7l1.3-1.2l1-1l0.4-0.5l0.4-0.4l0.3-0.4l0.3-0.4l0.3-0.4l0.2-0.4l0.2-0.4l0.1-0.4l0.1-0.4l0.1-0.4
	l0-0.4l0-0.4l-0.1-0.3l-0.1-0.4l-0.4-1.1l-0.4-1.1l-0.5-1.1l-0.5-1.2l-0.6-1.2l-0.7-1.3l-0.8-1.4l-1.1-1.9l-1.1-1.9l-0.8-1.4
	l-0.7-1.3l-0.6-1.2l-1.2-2.4l-1.2-2.4l-1.1-2.4l-1.1-2.4l-1.1-2.5l-1.1-2.5l-1-2.5l-1-2.5l-1-2.5l-1-2.5l-1-2.5l-1-2.5l-0.9-2.5
	l-0.9-2.5l-0.9-2.5l-0.9-2.5l0,0l0,0l-1-2.9l-0.9-3l-0.9-3l-0.9-3l-0.9-3l-0.8-3l-0.8-3l-0.8-3l-0.7-3l-0.7-3l-0.7-3l-0.6-3
	l-0.6-3.1l-0.6-3.1l-0.6-3.1l-0.5-3.1l-0.1-0.5l-0.2-1.3l-0.2-1l-0.2-0.9l-0.2-0.8l-0.3-0.7l-0.3-0.6l-0.3-0.5l-0.2-0.2l-0.2-0.2
	l-0.2-0.2l-0.2-0.1l-0.4-0.3l-0.6-0.2l-0.6-0.2l-0.7-0.2l-0.8-0.2l-0.9-0.1l-1.1-0.1l-7.5-0.8l-7-0.8l-6.5-0.7l-6.1-0.7l-5.6-0.7
	l-5.1-0.6l-4.6-0.6l-4.1-0.6l-1-0.2l-0.9-0.2L7.6,415l-0.8-0.3l-0.8-0.4l-0.7-0.4l-0.7-0.5l-0.6-0.5l-0.5-0.5l-0.5-0.5l-0.4-0.6
	l-0.4-0.6L1.9,410l-0.3-0.7l-0.3-0.8l-0.3-0.8l-0.2-0.8L0.6,406l-0.2-1l-0.1-1L0.2,403l-0.1-1.1l0-1.2l0-1.3L0,386.6l0-11.8V364
	l0-10l0-1.1l0.1-1.1l0.1-1.1l0.1-1l0.2-1l0.2-0.9l0.2-0.9l0.3-0.8l0.3-0.8l0.4-0.7l0.4-0.7l0.4-0.6l0.5-0.6l0.5-0.5l0.5-0.5l0.6-0.4
	l0.4-0.2l0.4-0.2l0.4-0.2l0.4-0.2l0.9-0.3l1-0.3l1.1-0.3l1.2-0.3l1.3-0.3l1.4-0.3l1.5-0.2l1.6-0.2l8.5-1.2l8.8-1.2l6.4-0.9l5.9-0.7
	l5.4-0.6l2.3-0.3l2.4-0.3l2.4-0.4l2.5-0.4l0.4-0.1l0.4-0.1l0.3-0.1l0.3-0.1l0.3-0.2l0.3-0.2l0.2-0.2l0.2-0.2l0,0l0,0l0,0l0.2-0.2
	l0.2-0.2l0.2-0.2l0.1-0.3l0.1-0.3l0.1-0.3l0.1-0.3l0.1-0.3l0.5-3.3l0.6-3.3l0.6-3.3l0.7-3.3l0.7-3.3l0.7-3.3l0.8-3.3l0.8-3.3
	l0.8-3.2l0.9-3.2l0.9-3.2l0.9-3.2l1-3.2l1-3.2l1.1-3.2l1.1-3.2l1.1-3.1l1.2-3.1l1.2-3.1l1.2-3.1l1.2-3.1l1.3-3l1.3-3l1.4-3l1.4-3
	l1.4-3l1.4-2.9l1.5-2.9l1.5-2.9l1.5-2.9l1.6-2.8l1.6-2.8l0.6-1l0.4-0.9l0.3-0.8l0.2-0.7l0.2-0.7l0.1-0.6l0-0.6l-0.1-0.6l-0.1-0.5
	l-0.1-0.4l-0.2-0.4l-0.2-0.5l-0.3-0.4l-0.4-0.4l-0.4-0.4l-0.5-0.4l-4.5-4.1l-4.4-4.1l-4.4-4.1l-4.3-4.1l-4.2-4.1l-4.2-4.1l-4.1-4.1
	l-4-4l-0.6-0.6l-0.5-0.6l-0.5-0.6l-0.5-0.6l-0.4-0.6l-0.4-0.6l-0.4-0.6l-0.3-0.6l-0.3-0.6l-0.3-0.6l-0.2-0.6l-0.2-0.6l-0.2-0.6
	l-0.1-0.6l-0.1-0.6l-0.1-0.6l0,0l0,0l0,0l0,0l0,0l0-0.5l0-0.5l0-0.5l0-0.5l0.1-0.5l0.1-0.5l0.1-0.5l0.1-0.5l0.1-0.5l0.2-0.5l0.2-0.5
	l0.2-0.5l0.3-0.6l0.3-0.6l0.8-1.3l0.9-1.4l1.1-1.5l1.2-1.7l1.4-1.8l7.3-9.3l6.8-8.5l3.2-4l3.1-3.8l2.9-3.6l2.8-3.4l0.5-0.6l0.5-0.5
	l0.5-0.5l0.5-0.5l0.5-0.4l0.5-0.4l0.5-0.4l0.5-0.3l0.5-0.3l0.5-0.3l0.5-0.3l0.5-0.2l0.5-0.2l0.5-0.2l0.5-0.1l0.5-0.1l0.7-0.1
	l0.7-0.1l0.7,0l0.7,0l0.7,0l0.7,0.1l0.7,0.1l0.8,0.2l0.8,0.2l0.8,0.3l0.8,0.3l0.8,0.4l0.8,0.4l0.9,0.4l0.9,0.5l0.9,0.5l10.5,6.2
	l10.2,6.1l9.8,6l9.5,5.9l0.4,0.2l0,0l0,0l0.7,0.3l0.7,0.3l0.8,0.2l0.8,0.1l0.3,0l0.2,0l0,0l0.2-0.1l0.2-0.1l0.7-0.4l0.7-0.4l0.7-0.4
	l0.7-0.4l0.6-0.5l0.6-0.5l0.6-0.5l0.6-0.5l1.9-1.7l2-1.7l2-1.8l2.1-1.8l2.1-1.8l2.1-1.8l2.2-1.8l2.2-1.8l2.3-1.8l2.3-1.8l4.7-3.6
	l4.9-3.6l5.1-3.6l0.8-0.6l0.8-0.6l0.8-0.7l0.7-0.7l0.3-0.3l0.2-0.3l0.1-0.2l0.1-0.2l0.1-0.2l0-0.2l0-0.3V116l-0.1-0.6l-0.1-0.6
	l-0.2-0.7l-0.3-0.7l-0.4-1l-0.2-0.5l-16.2-35l-0.3-0.6l-0.8-1.7l-0.6-1.3l-0.5-1.2L182,71l-0.4-1.1l-0.3-1l-0.3-1l-0.2-0.9l-0.2-0.9
	l-0.1-0.9l-0.1-0.9l0-0.9l0-0.8l0.1-0.8l0.1-0.8l0.2-0.8l0.3-0.9l0.4-0.9l0.4-0.8l0.5-0.8l0,0l0,0l0,0l0,0l0,0l0.5-0.6l0.5-0.6
	l0.5-0.6l0.6-0.5l0.6-0.5l0.7-0.5l0.7-0.4l0.8-0.4l10.3-5.2l10.6-5.3l10.9-5.4l11.2-5.5l1.3-0.6l1.2-0.5l1.1-0.5l1-0.4l1-0.3l1-0.3
	l0.9-0.2l0.9-0.2l0.9-0.1l0.9-0.1h0.8L242,28l0.8,0.1l0.7,0.2l0.7,0.2l0.7,0.3l0.5,0.2l0.4,0.2l0.4,0.3l0.4,0.3l0.8,0.6l0.8,0.7
	l0.8,0.8l0.8,0.8l0.7,0.9l0.7,1l0.7,1.1l0.7,1.1l5.1,8.7l5,8.7l4.9,8.6l4.8,8.6l0.5,0.9l0.6,0.9l0.6,0.9l0.6,0.9l0.6,0.9l0.7,0.8
	l0.7,0.8l0.7,0.8l0.1,0.1l0.1,0.1l0.2,0.1l0.2,0.1l0,0l0,0l0.1,0l0.2,0h0.2L278.5,78.7z M442.7,118.1l-0.2-0.1l-0.2-0.1l-0.2-0.1
	l-0.2-0.2l-0.1-0.2l-0.1-0.2l-0.1-0.2l0-0.2l-0.2-1.7l-0.2-1.6l-0.3-1.6l-0.3-1.6l-0.3-1.6l-0.4-1.5l-0.4-1.5l-0.5-1.5l-0.5-1.4
	l-0.5-1.4l-0.6-1.4l-0.6-1.4l-0.7-1.3l-0.7-1.3l-0.8-1.3l-0.8-1.2l0,0l0,0l0,0l0,0l0,0l0,0l-0.7-1l-0.7-1l-0.8-1l-0.8-1l-0.8-1
	l-0.9-0.9l-0.9-0.9l-0.9-0.9l-1-0.9l-1-0.9l-1-0.8l-1-0.8l-1.1-0.8l-1.1-0.8l-1.1-0.8l-1.2-0.7l-1.3-0.8l-1.3-0.7L415,77l-1.4-0.6
	l-1.4-0.6l-1.4-0.5l-1.4-0.5l-1.5-0.4l-1.5-0.4l-1.5-0.4l-1.5-0.3l-1.6-0.2l-1.6-0.2l-1.6-0.2l-1.6-0.1l-1.6-0.1l-1.7,0l-1.7,0.1
	l-1.7,0.1l-1.7,0.1l-1.7,0.2l-1.7,0.2l-1.7,0.3l-1.7,0.3l-1.7,0.4l-1.7,0.4l-1.6,0.5l-1.6,0.5l-1.6,0.6l-1.6,0.6l-1.6,0.6l-1.5,0.7
	l-1.9,0.9l-1.9,1l-1.8,1l-1.8,1.1l-1.8,1.1l-1.7,1.2l-1.7,1.2l-1.7,1.3l0,0l0,0l0,0l-1.2,1l-1.2,1l-1.2,1l-1.2,1.1l-1.1,1.1
	l-1.1,1.1l-1.1,1.2l-1.1,1.2l-1.1,1.2l-1,1.2l-1,1.3l-1,1.3l-1,1.3l-1,1.3l-0.9,1.4l-0.9,1.4l-0.1,0.2l-0.2,0.1l-0.2,0.1l-0.2,0.1
	l-0.2,0l-0.2,0l-0.2-0.1l-0.2-0.1l-0.8-0.4l-0.8-0.4l-0.8-0.4l-0.8-0.4l-0.8-0.4l-0.8-0.4l-0.9-0.3l-0.9-0.3l-2-0.6l-2-0.6l-2-0.5
	l-2-0.5l-2-0.4l-2.1-0.3l-2.1-0.3l-2.1-0.2l-2.1-0.2l-2.1-0.1l-2,0l-2,0l-2,0.1l-2,0.2l-2,0.2l-2,0.3l-1.9,0.3l-1.9,0.4l-1.9,0.5
	l-1.8,0.5l-1.8,0.6l-1.8,0.6l-1.7,0.7l-1.7,0.8l-1.6,0.8l-1.6,0.9l-1.6,0.9l-1.5,1l-1.5,1l-1.4,1.1l-1.4,1.1l-1.3,1.2l-0.8,0.8
	l-0.8,0.8l-0.8,0.8l-0.8,0.8l-0.7,0.8l-0.7,0.8l-0.6,0.8l-0.6,0.8l-0.6,0.8l-0.6,0.8l-0.5,0.8l-0.5,0.8l-0.5,0.9l-0.5,0.9l-0.5,0.9
	l-0.5,0.9l-0.4,0.9l-0.4,0.9l-0.4,0.9l-0.4,0.9l0,0l0,0l0,0l0,0l0,0l0,0l-0.5,1.4l-0.4,1.4l-0.4,1.4l-0.4,1.4l-0.3,1.4l-0.3,1.5
	l-0.2,1.5l-0.2,1.5l-0.1,1.5l-0.1,1.5l0,1.5l0,1.6l0.1,1.6l0.1,1.6l0.1,1.6l0.2,1.6l0,0.2l0,0.2l0,0.2l-0.1,0.2l-0.1,0.2l-0.1,0.1
	l-0.1,0.1l-0.1,0.1l-3.2,1.9l-3.2,2l-3.1,2l-3.1,2l-3.1,2l-3,2.1l-3,2.1l-2.9,2.1l-2.9,2.2l-2.9,2.2l-2.8,2.2l-2.8,2.2l-2.7,2.3
	l-2.7,2.3l-2.7,2.3l-2.6,2.4l-3.6,3.3l-3.6,3.4l-3.6,3.4l-3.5,3.5l-1.7,1.7l-1.7,1.8l-1.7,1.8l-1.7,1.8l-1.7,1.8l-1.6,1.8l-1.6,1.9
	l-1.6,1.9l-1.6,1.9l-1.6,1.9l-1.6,1.9l-1.6,1.9l-1.5,2l-1.5,2l-1.5,2l-1.5,2l-1.5,2l-1.4,2l-1.4,2.1l-1.4,2.1l-1.4,2.1l-1.4,2.1
	l-1.3,2.1l-1.3,2.1l-1.3,2.1l-1.3,2.1l-1.3,2.1l-1.2,2.2l-1.2,2.2l-1.2,2.2l-1.2,2.2l-1.2,2.2l-1.1,2.2l-1.1,2.2l-1.1,2.2l-1.1,2.2
	l-1,2.2l-1,2.2l-1,2.2l-1,2.3l-0.9,2.3l-0.9,2.3l-0.9,2.3l-0.9,2.3l-0.8,2.3l-0.8,2.3l-0.8,2.3l-0.8,2.3l-0.8,2.3l-0.7,2.3l-0.7,2.3
	l-0.7,2.3l-0.7,2.3l-0.6,2.3l-0.6,2.3l-0.6,2.3l-0.6,2.3l-0.5,2.3l-0.5,2.3l-0.5,2.3l-0.4,2.3l-0.4,2.3l-0.4,2.3l-0.4,2.3l-0.4,2.7
	l-0.4,2.7l-0.4,2.7l-0.3,2.7l-0.3,2.7l-0.3,2.7l-0.2,2.7l-0.2,2.7l-0.2,2.7l-0.2,2.7l-0.1,2.7l-0.1,2.7l-0.1,2.7l0,2.7l0,2.7l0,2.7
	l0,0l0,0l0,0l0,0l0,2.3l0.1,2.3l0.1,2.3l0.1,2.3l0.1,2.3l0.1,2.3l0.2,2.3l0.2,2.3l0.2,2.3l0.2,2.3l0.2,2.3l0.3,2.3l0.3,2.3l0.3,2.3
	l0.3,2.3l0.4,2.3l0.4,2.5l0.4,2.5l0.5,2.5l0.5,2.5l0.5,2.5l0.6,2.5l0.6,2.5l0.6,2.5l0.7,2.4l0.7,2.4l0.7,2.4l0.7,2.4l0.8,2.4
	l0.8,2.4l0.8,2.4l0.8,2.3l0.8,2.3l0.8,2.3l0.9,2.3l0.9,2.3l0.9,2.3l0.9,2.3l1,2.2l1,2.2l1,2.2l1,2.2l1,2.2l1,2.2l1.1,2.2l1.1,2.2
	l1.1,2.2l1.1,2.1l1.1,2.1l1.2,2.1l1.2,2.1l1.2,2.1l1.2,2.1l1.2,2.1l1.3,2l1.3,2l0,0l0,0l0,0l1.7,2.6l1.8,2.6l1.8,2.6l1.8,2.6
	l1.9,2.6l1.9,2.5l1.9,2.5l2,2.5l2,2.5l2,2.5l2.1,2.4l2.1,2.4l2.1,2.4l2.2,2.4l2.2,2.3l2.2,2.3l3.1,3.1l3.1,3.1l3.2,3l3.2,2.9
	l3.2,2.9l3.3,2.8l3.3,2.8l3.4,2.7l3.4,2.7l3.4,2.6l3.5,2.5l3.5,2.5l3.5,2.4l3.6,2.4l3.6,2.3l3.6,2.2l0,0l0,0l0,0l0,0l0,0l2.4,1.5
	l2.5,1.4l2.5,1.4l2.5,1.4l2.5,1.4l2.5,1.3l2.6,1.3l2.5,1.3l2.6,1.2l2.6,1.2l2.6,1.2l2.6,1.2l2.6,1.1l2.7,1.1l2.7,1.1l2.7,1.1
	l2.8,1.1l2.8,1l2.9,1l2.9,1l2.9,0.9l2.9,0.9l2.9,0.9l2.9,0.8l2.9,0.8l2.9,0.8l2.9,0.7l2.9,0.7l2.9,0.7l2.9,0.6l2.9,0.6l2.9,0.6l0,0
	l0,0l0,0l0,0l2.2,0.4l2.2,0.4l2.2,0.4l2.2,0.3l2.2,0.3l2.3,0.3l2.2,0.3l2.3,0.2l2.3,0.2l2.3,0.2l2.3,0.2l2.3,0.2l2.3,0.2l2.3,0.1
	l2.3,0.1l2.3,0.1l2.3,0.1l2.3,0l2.3,0h2.3l2.3,0l2.3,0l2.3-0.1l2.3-0.1l2.3-0.1l2.3-0.1l2.3-0.2l2.3-0.2l2.3-0.2l2.4-0.2l2.3-0.2
	l2.3-0.2l3.5-0.4l3.5-0.5l3.5-0.5l3.5-0.6l3.5-0.6l3.5-0.7l3.4-0.7l3.5-0.8l3.5-0.8l3.4-0.9l3.4-0.9l3.4-1l3.4-1.1l3.4-1.1l3.4-1.2
	l3.4-1.2l3.4-1.3l3.4-1.3l3.4-1.4l3.3-1.4l3.3-1.5l3.3-1.5l3.3-1.6l3.3-1.6l3.3-1.7l3.3-1.7l3.2-1.8l3.2-1.8l3.2-1.8l3.2-1.9
	l3.2-1.9l3.1-2l2.9-1.8l2.8-1.9l2.8-1.9l2.8-2l2.8-2l2.7-2l2.7-2l2.7-2.1l2.7-2.1l2.6-2.1l2.6-2.2l2.6-2.2l2.5-2.2l2.5-2.2l2.5-2.3
	l2.4-2.3l2.4-2.3l2.3-2.3l2.3-2.3l2.3-2.4l2.2-2.4l2.2-2.4l2.2-2.4l2.1-2.5l2.1-2.5l2-2.5l2-2.5l1.9-2.5l1.9-2.5l1.8-2.5l1.8-2.6
	l1.8-2.6l1.4-2.1l1.4-2.1l1.3-2.1l1.3-2.1l1.3-2.1l1.3-2.1l1.3-2.2l1.2-2.2l1.2-2.2l1.2-2.2l1.2-2.2l1.2-2.2l1.1-2.2l1.1-2.2
	l1.1-2.2l1.1-2.2l1.1-2.2l1-2.2l1-2.2l1-2.2l0.9-2.2l0.9-2.3l0.9-2.3l0.9-2.3l0.9-2.3l0.8-2.3l0.8-2.3l0.8-2.3l0.8-2.3l0.7-2.3
	l0.7-2.3l0.7-2.3l0.7-2.3l0.7-2.3l0.6-2.3l0.6-2.3l0.6-2.3l0.6-2.3l0.5-2.3l0.5-2.3l0.5-2.3l0.5-2.3l0.4-2.3l0.4-2.3l0.4-2.3
	l0.4-2.3l0.3-2.4l0.3-2.3l0.3-2.4l0.3-2.3l0.2-2.3l0.2-2.4l0.2-2.4l0.2-2.4l0.1-2.4l0.1-2.4l0.1-2.4l0.1-2.4l0-2.4l0-2.3l0-2.4
	l0-2.4l-0.1-2.3l-0.1-2.4l-0.1-2.3l-0.1-2.3l-0.2-2.3l-0.2-2.3l-0.4-4.4l-0.5-4.4l-0.5-4.3l-0.6-4.3l-0.7-4.2l-0.7-4.2l-0.8-4.2
	l-0.9-4.1l-0.9-4.1l-1-4l-1.1-4l-1.1-4l-1.2-3.9l-1.3-3.9l-1.3-3.8l-1.4-3.8l-1.2-3.1l-1.2-3.1l-1.3-3.1l-1.3-3l-1.3-3l-1.3-3
	l-1.4-3l-1.4-2.9l-1.4-2.9l-1.5-2.9l-1.5-2.8l-1.5-2.8l-1.5-2.8l-1.6-2.8l-1.6-2.7l-1.6-2.7l-1.6-2.7l-1.7-2.6L590,242l-1.7-2.6
	l-1.8-2.5l-1.8-2.5l-1.8-2.5l-1.8-2.5l-1.9-2.4l-1.9-2.4l-1.9-2.4l-2-2.3l-2-2.3l-2-2.3l-2-2.2l-2.1-2.2l-1.9-2l-1.9-2l-1.9-1.9
	l-1.9-1.9l-1.9-1.9l-2-1.9l-2-1.8l-2-1.8l-2-1.8l-2-1.8l-2-1.8l-2-1.7l-2-1.7l-2.1-1.7l-2.1-1.7l-2.1-1.6l-0.1-0.1l-0.1-0.1
	l-0.1-0.1l-0.1-0.1l0-0.2l0-0.2l0-0.2l0-0.2l0.5-1.5l0.4-1.5l0.4-1.5l0.4-1.5l0.3-1.5l0.3-1.5l0.3-1.5l0.2-1.5l0.2-1.5l0.2-1.5
	l0.1-1.5l0.1-1.5l0-1.5V160l0-1.5l-0.1-1.5l-0.1-1.4l-0.1-1.4l-0.2-1.4l-0.2-1.4l-0.3-1.4l-0.3-1.4l-0.3-1.4l-0.4-1.4l-0.4-1.3
	l-0.4-1.3l-0.5-1.3l-0.5-1.3l-0.5-1.3l-0.6-1.3l-0.6-1.2l-0.6-1.2l-0.7-1.2l-0.7-1.2l-0.8-1.2l-0.8-1.2l-0.8-1.2l-0.9-1.1l-0.9-1.1
	l-0.9-1.1l-0.9-1l-0.9-1l-1-1l-1-0.9l-1-0.9l-1-0.8l-1-0.8l-1.1-0.8l-1.1-0.7l-1.1-0.7l0,0l0,0l0,0l0,0l0,0l-1.2-0.7l-1.3-0.7
	l-1.3-0.6l-1.3-0.6l-1.3-0.5l-1.4-0.5l-1.4-0.5l-1.4-0.4l-1.5-0.4l-1.5-0.3l-1.5-0.3l-1.5-0.2l-1.6-0.2l-1.6-0.2l-1.6-0.1l-1.6-0.1
	l-2,0l-2,0l-1.9,0.1l-1.9,0.2l-1.8,0.3l-1.8,0.3l-1.8,0.4l-1.8,0.4l-1.8,0.5l-1.8,0.6l-1.8,0.7l-1.8,0.7l-1.8,0.8l-1.8,0.9l-1.8,0.9
	l-1.8,1l-1.8,1.1l-1.8,1.2l-1.8,1.2l-1.8,1.3l-0.2,0.1l-0.2,0l-0.2,0l-0.2-0.1l-1.2-0.9l-1.2-0.8l-1.2-0.8l-1.3-0.7l-1.3-0.7
	l-1.4-0.6l-1.4-0.6L442.7,118.1z"/>
<path class="st0" d="M386,137.6l-0.6-0.3l-0.6-0.3l-0.6-0.2l-0.6-0.1l-0.6-0.1l-0.6,0l-0.6,0l-0.6,0.1l0,0l-0.3,0.1l-0.4,0.1
	l-0.7,0.2l-0.7,0.3l-0.7,0.3l-0.8,0.3l-0.7,0.4l-0.8,0.4l-1.5,0.8l-1.5,0.9l-1.5,1l-1.5,1.1l-1.4,1.1l0,0l-0.2,0.1l-0.2,0l-0.2-0.1
	l-0.1-0.1l-0.9-1.8l-1-1.8l-1-1.8l-1.1-1.8l-1.2-1.8l-1.2-1.8l-1.3-1.8l-1.4-1.7l-0.3-0.4l-0.2-0.4l-0.1-0.4l-0.1-0.4l0,0l0,0l0-0.3
	l0.1-0.3l0.1-0.3l0.2-0.3l0.9-1.5l0.9-1.5l1-1.5l1-1.5l1.1-1.4l1.1-1.4l1.1-1.4l1.2-1.3l1.2-1.3l1.2-1.2l1.3-1.2l1.3-1.1l1.4-1.1
	l1.4-1.1l1.4-1l1.4-0.9l1.4-0.9l1.4-0.8l1.5-0.8l1.5-0.7l1.5-0.6l1.5-0.6l1.5-0.5l1.5-0.5l1.5-0.4l1.5-0.3l1.5-0.3l1.5-0.2l1.5-0.2
	l1.5-0.1l1.5,0l1.5,0l0.7,0l0.7,0l0.7,0.1l0.7,0.1l0.6,0.1l0.6,0.1l0.6,0.2l0.6,0.2l0.5,0.2l0.5,0.2l0.5,0.2l0.5,0.2l0.4,0.3
	l0.4,0.3l0.4,0.3l0.4,0.3l0.3,0.4l0,0l0,0l0,0l0.5,0.5l0.4,0.6l0.1,0.2l0.7,1.1l0.6,1.1l0.6,1.2l0.5,1.2l0.5,1.2l0.4,1.3l0.4,1.3
	l0.3,1.3l0.4,2l0.3,2l0.3,2l0.2,1.9l0.2,1.9l0.1,1.9l0.1,1.9l0,1.9l0,1.9l-0.1,1.9l-0.1,1.8l-0.2,1.8l-0.2,1.8l-0.3,1.8l-0.4,1.8
	l-0.4,1.8l0,0l0,0l0,0l0,0l-0.5,2.1l-0.6,2.1l-0.7,2l-0.8,2l-0.8,2l-0.9,2l-1,2l-1.1,2l-0.7,1.3l-0.8,1.2l-0.8,1.2l-0.8,1.2
	l-0.8,1.1l-0.9,1.1l-0.9,1.1l-0.9,1l-0.9,1l-1,1l-1,1l-1,0.9l-1,0.9l-1,0.9l-1.1,0.8l-1.1,0.8l0,0l0,0l0,0l-1.1,0.7l-1.1,0.7
	l-1.1,0.7l-1.1,0.6l-1.1,0.6l-1.2,0.6l-1.2,0.5l-1.2,0.5l-1.2,0.5l-1.2,0.5l-1.3,0.4l-1.3,0.4l-1.3,0.4l-1.3,0.3l-1.3,0.3l-1.4,0.3
	l-0.1,0l-0.2,0l-0.2,0l-0.1-0.1l-0.1-0.1l-0.1-0.1l-0.1-0.1l0-0.2v-0.2l0.2-2.6l0.2-2.6l0-1.3l0-1.3l0-1.3l0-1.2l0-1.2l0-1.2
	l-0.1-1.2l-0.1-1.2L374,167l-0.1-1.2l-0.1-1.2l-0.2-1.2l0-0.3l0-0.3l0-0.3l0.1-0.3l0.1-0.3l0.1-0.3l0.2-0.2l0.2-0.2l1-0.9l0.9-0.9
	l0.9-0.9l0.8-1l0.8-1l0.8-1l0.7-1l0.7-1.1l0,0l0,0l0.5-0.8l0.5-0.8l0.5-0.8l0.5-0.9l0.4-0.9l0.4-0.9l0.4-0.9l0.4-0.9l0.4-0.9
	l0.3-0.9l0.3-1l0.3-1l0.3-1l0.2-1l0.2-1l0.2-1l0-0.2v-0.2l0-0.2l-0.1-0.2l0,0l-0.1-0.1l-0.1-0.1l-0.1-0.1L386,137.6z"/>
<path class="st0" d="M323.4,160.1l-0.3,0.1l-0.2,0.1l-0.2,0.1l-0.1,0.2l0,0l0,0l0,0l-0.1,0.2l0,0.2l0,0.2l0.1,0.3l0.3,1l0.4,0.9
	l0.4,0.9l0.4,0.9l0.5,0.9l0.5,0.8l0.5,0.8l0.5,0.8l0.6,0.8l0.6,0.8l0.7,0.8l0.7,0.7l0.8,0.7l0.8,0.7l0.8,0.7l0.9,0.7l0.9,0.6l1,0.7
	l1.1,0.7l1.1,0.7l1.2,0.7l1.3,0.7l3.6,1.9l0.4,0.2l0.9,0.5l0.9,0.6l0.9,0.6l0.9,0.7l0.9,0.7l0.8,0.8l0.8,0.9l0.8,0.9l0.8,1l0.8,1
	l0.8,1.1l0.8,1.2l0.8,1.2l0.8,1.4l0.9,1.5l0.9,1.6l0,0l0.1,0.2l0,0.2l0,0.2l-0.1,0.2l-0.1,0.2l-0.1,0.2l-0.2,0.2l-0.2,0.1l-1.2,0.5
	l-1.2,0.5l-1.2,0.5l-1.2,0.4l-1.2,0.4l-1.2,0.3l-1.2,0.3l-1.2,0.3l-1.2,0.2l-1.2,0.2l-1.2,0.2l-1.2,0.1l-1.2,0.1l-1.2,0.1l-1.2,0
	l-1.2,0l-1,0l-1-0.1l-1-0.1l-1-0.1l-1-0.1l-1-0.1l-1-0.1l-1-0.2l-1-0.2l-1-0.2l-1-0.2l-1-0.3l-0.9-0.3l-1-0.3l-0.9-0.3l-0.9-0.4
	l-1-0.4l-0.9-0.4l-0.9-0.4l-0.9-0.4l-0.9-0.4l-0.9-0.5l-0.9-0.5l-0.9-0.5l-0.9-0.5l-0.9-0.6l-0.9-0.6l-0.9-0.6L308,192l-1.7-1.3
	l-1.4-1.2l-1.4-1.2l-1.4-1.3l-1.4-1.4l-1.3-1.4l-1.3-1.5l-1.2-1.5l-1.2-1.6l-1.2-1.6l-1.1-1.6l-1.1-1.7l-1-1.7l-1-1.7l-0.9-1.8
	l-0.9-1.8l-0.8-1.8l-0.7-1.8l-0.7-1.8l-0.6-1.8l-0.5-1.8l-0.5-1.8l-0.4-1.8l-0.4-1.8l-0.3-1.8l-0.2-1.8l-0.2-1.8L283,146l0-1.8
	l0-1.8l0.1-1.8l0.1-1.7l0.2-1.7l0.1-0.5l0.1-0.5l0.2-0.5l0.2-0.5l0.2-0.4l0.2-0.4l0.3-0.4l0.3-0.4l0.3-0.4l0.4-0.4l0.4-0.4l0.4-0.4
	l0.4-0.3l0.5-0.3l0.5-0.3l0.6-0.3l0.6-0.3l0.6-0.3l0.6-0.2l0.7-0.2l1.8-0.6l1.8-0.5l1.8-0.5l1.8-0.4l1.9-0.3l1.9-0.3l1.8-0.2
	l1.9-0.1l0,0l0,0l0,0l1.1,0l1.1,0l1.1,0l1.1,0l1.1,0l1.1,0.1l1.1,0.1l1.1,0.1l1.1,0.1l1.1,0.1l1.1,0.2l1.1,0.2l1.1,0.2l1.1,0.2
	l1.1,0.3l1.1,0.3l1.4,0.4l1.4,0.4l1.4,0.5l1.4,0.5l1.3,0.5l1.3,0.6l1.3,0.6l1.2,0.6l1.2,0.7l1.2,0.7l1.2,0.7l1.1,0.8l1.1,0.8
	l1.1,0.8l1.1,0.8l1,0.9l0,0l0,0l0,0l0,0l0,0l0.8,0.7l0.7,0.7l0.7,0.7l0.7,0.7l0.7,0.7l0.7,0.8l0.7,0.8l0.6,0.8l0.6,0.8l0.6,0.8
	l0.6,0.9l0.6,0.9l0.6,0.9l0.5,0.9l0.5,0.9l0.5,0.9l0.6,1.2l0.6,1.2l0.6,1.3l0.5,1.3l0.5,1.3l0.4,1.3l0.4,1.3l0.4,1.4l0.3,1.4
	l0.3,1.4l0.2,1.4l0.2,1.4l0.1,1.4l0.1,1.3l0,1.3l0,1.3l0,0.2l0,0.1l-0.1,0.1l-0.1,0.1l-0.1,0l-0.1,0l-0.1,0l-0.1,0l-0.1-0.1
	l-1.6-1.4l-1.5-1.4l-1.6-1.3l-1.5-1.2l-0.8-0.6l-0.8-0.6l-0.8-0.6l-0.8-0.5l-0.8-0.5l-0.8-0.5l-0.8-0.5l-0.8-0.5l-0.9-0.4l-0.9-0.4
	l-0.9-0.4l-0.9-0.4l-0.9-0.3l-0.9-0.3l-0.9-0.3l-0.9-0.3l-0.9-0.2l-0.9-0.2l-0.9-0.2l-0.9-0.2l-0.9-0.2l-0.9-0.1l-0.9-0.1l-0.9-0.1
	L330,160L329,160l-0.9,0h-0.9l-0.9,0l-1,0l-0.9,0L323.4,160.1z"/>
<path class="st0" d="M476.2,179.7l0-0.5l0-0.4l0-0.1l0-0.1l-0.1-0.1l-0.1,0l0,0l0,0l0,0l-0.1,0l-0.1,0l-0.1,0l-0.1,0.1l-0.3,0.3
	l-0.3,0.4l-0.6,0.8l-0.6,0.8l-0.6,0.8l-0.5,0.8l-0.5,0.8l-0.5,0.9l-0.5,0.9l-0.5,0.9l-0.4,0.8l-0.4,0.8l-0.3,0.8l-0.3,0.8l-0.6,1.7
	l-0.5,1.7l-0.5,1.8l-0.4,1.8l-0.3,1.8l-0.2,1.9l-0.2,1.9l-0.1,1.9l0,2l0,2l0.1,2l0.2,2l0.3,2.1l0.3,2.1l0,0l0,0.1l0,0.1l0,0.1
	l-0.1,0.1l-0.1,0.1l-0.1,0.1l-0.1,0l-0.1,0l-11.3,0l-0.3,0l-0.2-0.1l-0.2-0.1l-0.2-0.1l-0.2-0.2l-0.2-0.2l-0.1-0.2l-0.1-0.2l-0.5-2
	l-0.4-2l-0.4-2l-0.3-2.1l0,0l0,0l0,0l0,0l-0.1-1.2l-0.1-1.2l-0.1-1.2l-0.1-1.2l-0.1-1.2l0-1.2l0-1.2l0-1.2l0-1.2l0.1-1.2l0.1-1.2
	l0.1-1.2l0.1-1.2l0.1-1.2l0.2-1.2l0.2-1.2l0.2-1.5l0.3-1.5l0.3-1.5l0.3-1.4l0.4-1.4l0.4-1.4l0.4-1.4l0.5-1.4l0.5-1.4l0.5-1.4
	l0.5-1.3l0.6-1.3l0.6-1.3l0.6-1.3l0.7-1.2l0.7-1.2l0,0l0,0l0.7-1.2l0.8-1.2l0.8-1.2l0.8-1.2l0.8-1.2l0.9-1.1l0.9-1.1l0.9-1.1l1-1.1
	l1-1.1l1-1l1-1l1.1-1l1.1-1l1.2-1l1.2-1l0.8-0.6l0.8-0.6l0.8-0.6l0.8-0.6l0.8-0.5l0.8-0.5l0.8-0.5l0.8-0.5l0.9-0.5l0.9-0.4l0.9-0.4
	l0.9-0.4l0.9-0.4l0.9-0.3l0.9-0.3l0.9-0.3l0,0l1.1-0.3l1.1-0.3l1.1-0.3l1.1-0.2l0.7-0.1l0.7-0.1l0.6-0.1l0.6,0l0.6,0l0.6,0l0.6,0
	l0.6,0.1l0.6,0.1l0.5,0.1l0.5,0.1l0.5,0.2l0.5,0.2l0.5,0.2l0.5,0.2l0.4,0.3l0.5,0.4l0.5,0.4l0.5,0.4l0.4,0.5l0.4,0.5l0.4,0.5
	l0.4,0.6l0.3,0.6l0.3,0.7l0.3,0.7l0.3,0.7l0.2,0.8l0.2,0.8l0.2,0.8l0.2,0.9l0.1,0.9l0.1,1.1l0.1,1.1l0.1,1.4l0,1.4v1.4l0,1.4
	l-0.1,1.4l-0.1,1.4l-0.2,1.4l-0.2,1.4l-0.3,1.4l-0.3,1.4l-0.4,1.4l-0.4,1.4l-0.5,1.4l-0.5,1.4l-0.5,1.4l-0.6,1.4l-0.6,1.4l-0.7,1.3
	l-0.7,1.3l-0.8,1.3l-0.8,1.3l-0.8,1.3l-0.9,1.3l-0.9,1.2l-1,1.2l-1,1.2l-1,1.2l-1.1,1.2l-1.1,1.1l-1.1,1.1l-1.2,1.1l-1.2,1l-1,0.9
	L487,197l-1.1,0.8l-1.1,0.7l-1.1,0.7l-1.2,0.6l-1.2,0.6l-1.2,0.6l0,0l-0.9,0.4l-0.1,0l-0.1,0l-0.1,0l-0.1,0l-0.1-0.1l-0.1-0.1
	l-0.1-0.1l0-0.1l0,0l0,0l-0.4-1.6l-0.4-1.6l-0.3-1.5l-0.3-1.5l-0.2-1.4l-0.2-1.4l-0.2-1.4l-0.2-1.3l-0.1-1.3l-0.1-1.3l-0.1-1.2
	l0-1.2v-1.2l0-1.1l0.1-1.1L476.2,179.7z"/>
<path class="st1" d="M353.5,379.1l-5.8-3.8l-7.9-5.1l-8.1-5.2l-5.9-3.9l-5.4-3.6l-4.9-3.3l-0.6-0.4l-0.6-0.4l-0.5-0.5l-0.5-0.5
	l-0.2-0.2L313,352l-0.1-0.2l0-0.2l7.3-117.3l0-0.4l0.1-0.4l0.1-0.4l0.2-0.4l0.2-0.4l0.2-0.4l0.3-0.3l0.3-0.3l0.3-0.3l0.4-0.2
	l0.4-0.2l0.4-0.2l0.4-0.1l0.4-0.1l0.4-0.1l0.4,0l33.9,0l33.2,0l0.7,0l0.6,0.1l0.6,0.1l0.5,0.1l0.5,0.2l0.5,0.2l0.4,0.3l0.4,0.3
	l0.3,0.3l0.2,0.3l0.2,0.3l0.2,0.3l0.2,0.4l0.2,0.4l0.1,0.4l0.1,0.5l0.1,0.5l0.1,0.5l0.1,0.5l0,0.6l0,1.3v1.8v1.5l0,1.1l1.2,20.6
	l1.2,20.9l1.3,21.1l1.3,21.4l1.4,21.7l1.4,21.9l1.5,22.2l1.5,22.5l0,0.1l0,0.1l-0.1,0.1l-0.1,0.1l-0.1,0l-0.1,0h-0.1l-0.1,0l-0.1,0
	l-13.5-8.7l-13.6-8.8l-13.8-9L353.5,379.1z"/>
<path class="st1" d="M431,466.1l13.3-229.6l0-0.1l0-0.1l0,0l0.1-0.1l0.1-0.1l0.1,0l0.1,0l38.1,0l0.1,0l0.1,0.1l0.1,0.1l0,0.1
	l13,199.8l0,0.2l-0.1,0.1l-0.1,0.1l-64.3,29.8l-0.1,0l-0.1,0l-0.1,0l-0.1,0l-0.1-0.1l-0.1-0.1L431,466.1L431,466.1z"/>
<path class="st0" d="M560.2,358.8l-0.5-0.3l-0.4-0.4l-0.4-0.4l-0.3-0.4l0,0l0,0l-0.2-0.3l-0.2-0.3l-0.2-0.4l-0.1-0.4l-0.1-0.4
	l-0.1-0.4l-0.1-0.4l0-0.4l-0.2-6.7l-0.2-6.5l-0.1-6.4l-0.1-6.2l0-0.8l0.1-0.8l0.2-0.8l0.2-0.7l0.3-0.7l0.3-0.6l0.4-0.6l0.5-0.6
	l0.5-0.5l0.6-0.4l0.6-0.4l0.7-0.3l0.7-0.2l0.7-0.2l0.8-0.1l0.8,0l0.8,0l0.8,0.1l0.7,0.2l0.7,0.3l0.7,0.3l0.6,0.4l0.6,0.4l0.5,0.5
	l0.5,0.5l0.4,0.6l0.4,0.6l0.3,0.6l0.2,0.7l0.2,0.7l0.1,0.8l0.1,0.8l0.2,6.6l0.1,6.6l0,6.5l0,6.5l0,0.5l-0.1,0.5l-0.1,0.5l-0.2,0.4
	l0,0l0,0l0,0l0,0l-0.3,0.5l-0.3,0.4l-0.4,0.4l-0.5,0.4l-0.2,0.1l-0.2,0.2l-0.1,0.2l-0.1,0.2v0.2l0.1,0.2l0.1,0.2l0.2,0.2l0.2,0.2
	l1.6,1.1l1.1,0.8l1,0.8l0.8,0.7l0.4,0.4l0.3,0.4l0.3,0.4l0.3,0.4l0.2,0.4l0.2,0.4l0.2,0.4l0.2,0.4l0.2,0.6l0.2,0.6l0.1,0.6l0.1,0.6
	l0,0.6l0,0.7l-0.1,0.7l-0.1,0.7l-0.1,0.7l-0.1,0.6l-0.2,0.6l-0.2,0.6l-0.2,0.6l-0.2,0.6l-0.2,0.5l-0.2,0.5l-0.3,0.5l-0.3,0.5
	l-0.3,0.5l-0.3,0.4l-0.3,0.4l-0.4,0.4l-0.4,0.4l-0.4,0.3l0,0l0,0l-0.3,0.3l-0.4,0.3l-0.4,0.2l-0.4,0.2l-0.8,0.4l-0.9,0.3l-0.9,0.3
	l-1,0.2l-1,0.1l-1.1,0.1l-0.8,0l-0.8,0l-0.7-0.1l-0.7-0.1l-0.7-0.2l-0.7-0.2l-0.7-0.3l-0.6-0.3l-0.7-0.4l-0.7-0.5l-0.6-0.5l-0.6-0.6
	l-0.6-0.6l-0.5-0.7l-0.5-0.7l-0.4-0.8l-0.3-0.8l-0.3-0.8l-0.2-0.9l-0.2-0.9l-0.1-0.9l-0.1-0.9l0-0.9l0-1l0.1-0.5l0.1-0.5l0.1-0.5
	l0.2-0.5l0.2-0.5l0.3-0.5l0.3-0.5l0.3-0.5l0.4-0.5l0.4-0.5l0.5-0.6l0.5-0.6l0.5-0.6l0.6-0.6l0.6-0.6l0.7-0.6l0.1-0.1l0.1-0.1l0-0.1
	l0-0.1l0-0.1l0-0.1l-0.1-0.1L560.2,358.8L560.2,358.8L560.2,358.8z"/>
<path class="st1" d="M409.6,502.5l2.4-0.8l2.4-0.9l2.5-1l2.5-1.1l24.4-11.2l24.8-11.5l25.2-11.7l25.6-11.9l4.4-2.1l4.5-2.2l0.2-0.1
	l0.2,0l0.2,0l0.2,0l0.2,0.1l0.1,0.1l0.1,0.2l0.1,0.2l0,0.2l-0.1,97.6l0,0.3l-0.1,0.3l-0.2,0.3l-0.2,0.3l-2.2,2l-2.2,2l-2.2,2
	l-2.2,1.9l0,0l0,0l-1.8,1.4l-1.8,1.4l-1.8,1.4l-1.8,1.4l-1.8,1.4l-1.8,1.4l-1.8,1.3l-1.9,1.3l-1.9,1.3l-1.9,1.3l-1.9,1.2l-1.9,1.2
	l-2,1.2l-2,1.2l-2,1.2l-2,1.2l-3.7,2l-3.7,2l-3.8,1.9l-3.8,1.9l-3.8,1.8l-3.8,1.7l-3.8,1.7l-3.8,1.6l-3.9,1.5l-3.9,1.4l-3.9,1.4
	l-3.9,1.3l-3.9,1.2l-3.9,1.2l-3.9,1.1l-3.9,1l-3.9,1l-3.9,0.9l-3.9,0.8l-3.9,0.7l-3.9,0.6l-3.9,0.6l-3.9,0.5l-3.9,0.4l-3.9,0.3
	l-3.9,0.3l-3.9,0.2l-3.9,0.1l-3.9,0.1l-3.8,0l-3.8-0.1l-3.8-0.2l-3-0.2l-2.9-0.2l-2.8-0.2l-2.8-0.2l-2.7-0.3l-2.7-0.3l-2.6-0.3
	l-2.6-0.3l-2.5-0.4l-2.5-0.4l-2.4-0.4l-2.4-0.4l-2.4-0.5l-2.3-0.5l-2.3-0.5l-2.2-0.5l-2.3-0.6l-2.3-0.6l-2.3-0.6l-2.3-0.6l-2.3-0.7
	l-2.3-0.7l-2.3-0.7l-2.3-0.7l-2.2-0.8l-2.2-0.8l-2.2-0.8l-2.2-0.8l-2.2-0.9l-2.2-0.9l-2.2-0.9l-2.2-0.9l0,0l0,0l0,0l-3.4-1.5
	l-3.4-1.5l-3.3-1.6l-3.3-1.6l-3.3-1.7l-3.3-1.7l-3.2-1.8l-3.2-1.8l-3.2-1.9l-3.2-1.9l-3.2-2l-3.1-2l-3.1-2.1l-3.1-2.1l-3.1-2.2
	l-3-2.2l-0.7-0.5l-0.6-0.5l-0.6-0.6l-0.6-0.6l-0.1-0.2l-0.1-0.2l0,0l0-0.2l0-0.2l0.1-5.1l0-5.2l0-5.3l-0.1-5.4l-0.1-1l-0.1-0.9
	l-0.1-0.5l-0.1-0.4l-0.1-0.4l-0.1-0.4l-0.2-0.4l-0.2-0.4l-0.2-0.4l-0.2-0.3l-0.2-0.3l-0.2-0.3l-0.3-0.3l-0.3-0.3l-0.3-0.2l-0.3-0.2
	l-0.3-0.2l-0.3-0.2l-0.3-0.2l-0.3-0.2l-0.4-0.2l-0.4-0.1l-0.8-0.2l-0.8-0.2l-0.9-0.1l-0.9,0l-4.7,0.1l-4.8,0h-4.8l-4.9,0l-0.4,0
	l-0.5,0l-1.2,0.2l-0.8,0.1l-0.6,0l-0.5,0l-0.5,0l-0.2,0l-0.2-0.1l-0.2-0.1l-0.2-0.2l-2.4-2.6l-2.4-2.7l-2.3-2.8l-2.3-2.8l-2.3-2.9
	l-2.2-3l-2.2-3l-2.2-3.1l-2.2-3.2l-2.2-3.2l-2.1-3.3l-2.1-3.4l-2.1-3.5l-2.1-3.5l-2-3.7l-2-3.7l-0.2-0.4l-0.2-0.4l-0.1-0.4l-0.1-0.4
	l0-0.5v-78l0-0.1l0-0.1l0.1-0.1l0.1-0.1l12.2-6.1l12.1-6.1l12-6.2l12-6.2l11.9-6.2l11.8-6.2l11.7-6.2l11.7-6.2l0.3-0.1l0.1,0l0.1,0
	l0.1,0l0.1,0l0.1,0.1l0.1,0.1l17.4,11.6l17.5,11.6l17.6,11.6l17.6,11.6l17.7,11.7l17.8,11.6l17.9,11.7l18,11.7l1.1,0.7l1,0.8l1,0.8
	l0.9,0.8l0.1,0.1l0.1,0.1l0,0.1l0,0.2V502l0,0.2l0,0.1l0,0.1l0.1,0.1l0,0l0,0l0,0l0,0l0.1,0.1l0.1,0l0.1,0L409.6,502.5z M235,425.9
	l0-0.7l-0.1-0.7l-0.2-0.7l-0.2-0.7l-0.3-0.7l-0.4-0.6l-0.4-0.6l-0.5-0.5l-0.5-0.5l-0.6-0.4l-0.6-0.4l-0.7-0.3l-0.7-0.2l-0.7-0.2
	l-0.7-0.1l-0.7,0l-19.4,0l-0.7,0l-0.7,0.1l-0.7,0.2l-0.7,0.2l-0.7,0.3l-0.6,0.4l-0.6,0.4l-0.5,0.5l-0.5,0.5l-0.4,0.6l-0.4,0.6
	l-0.3,0.7l-0.2,0.7l-0.2,0.7l-0.1,0.7l0,0.7l0,19.4l0,0.7l0.1,0.7l0.2,0.7l0.2,0.7l0.3,0.7l0.4,0.6l0.4,0.6l0.5,0.5l0.5,0.5l0.6,0.4
	l0.6,0.4l0.7,0.3l0.7,0.2l0.7,0.2l0.7,0.1l0.7,0l19.4,0l0.7,0l0.7-0.1l0.7-0.2l0.7-0.2l0.7-0.3l0.6-0.4l0.6-0.4l0.5-0.5l0.5-0.5
	l0.4-0.6l0.4-0.6l0.3-0.7l0.2-0.7l0.2-0.7l0.1-0.7l0-0.7L235,425.9z M290.9,426l0-0.7l-0.1-0.7l-0.2-0.7l-0.3-0.7l-0.3-0.7l-0.4-0.6
	l-0.4-0.6l-0.5-0.5l-0.6-0.5l-0.6-0.4l-0.6-0.4l-0.7-0.3l-0.7-0.2l-0.7-0.2l-0.7-0.1l-0.7,0l-19.3,0.1l-0.7,0l-0.7,0.1l-0.7,0.2
	l-0.7,0.3l-0.7,0.3l-0.6,0.4l-0.6,0.4l-0.5,0.5l-0.5,0.6l-0.4,0.6l-0.4,0.6l-0.3,0.7l-0.2,0.7l-0.2,0.7l-0.1,0.7l0,0.7l0.1,19.2
	l0,0.7l0.1,0.7l0.2,0.7l0.3,0.7l0.3,0.7l0.4,0.6l0.4,0.6l0.5,0.5l0.6,0.5l0.6,0.4l0.6,0.4l0.7,0.3l0.7,0.2l0.7,0.2l0.7,0.1l0.7,0
	l19.3-0.1l0.7,0l0.7-0.1l0.7-0.2l0.7-0.3l0.7-0.3l0.6-0.4l0.6-0.4l0.5-0.5l0.5-0.6l0.4-0.6l0.4-0.6l0.3-0.7l0.2-0.7l0.2-0.7l0.1-0.7
	l0-0.7L290.9,426z M234.9,479.8l0-0.7l-0.1-0.7l-0.2-0.7l-0.2-0.7l-0.3-0.6l-0.4-0.6l-0.4-0.6l-0.5-0.5l-0.5-0.5l-0.6-0.4l-0.6-0.4
	l-0.7-0.3l-0.7-0.2l-0.7-0.2l-0.7-0.1l-0.7,0l-19.6,0.1l-0.7,0l-0.7,0.1l-0.7,0.2l-0.7,0.2l-0.6,0.3l-0.6,0.4l-0.6,0.4l-0.5,0.5
	l-0.5,0.5l-0.4,0.6l-0.4,0.6l-0.3,0.7l-0.2,0.7l-0.2,0.7l-0.1,0.7l0,0.7l0.1,20.2l0,0.7l0.1,0.7l0.2,0.7l0.2,0.7l0.3,0.6l0.4,0.6
	l0.4,0.6l0.5,0.5l0.5,0.5l0.6,0.4l0.6,0.4l0.7,0.3l0.7,0.2l0.7,0.2l0.7,0.1l0.7,0l19.6-0.1l0.7,0l0.7-0.1l0.7-0.2l0.7-0.2l0.6-0.3
	l0.6-0.4l0.6-0.4l0.5-0.5l0.5-0.5l0.4-0.6l0.4-0.6l0.3-0.7l0.2-0.7l0.2-0.7l0.1-0.7l0-0.7L234.9,479.8z M290.9,480l0-0.7l-0.1-0.7
	l-0.2-0.7l-0.2-0.7l-0.3-0.7l-0.4-0.6l-0.4-0.6l-0.5-0.5l-0.5-0.5l-0.6-0.4l-0.6-0.4l-0.7-0.3l-0.7-0.2l-0.7-0.2l-0.7-0.1l-0.7,0
	l-19.5,0.1l-0.7,0l-0.7,0.1l-0.7,0.2l-0.7,0.2l-0.7,0.3l-0.6,0.4l-0.6,0.4l-0.5,0.5l-0.5,0.5l-0.4,0.6l-0.4,0.6l-0.3,0.7l-0.2,0.7
	l-0.2,0.7l-0.1,0.7l0,0.7l0.1,20l0,0.7l0.1,0.7l0.2,0.7l0.2,0.7l0.3,0.7l0.4,0.6l0.4,0.6l0.5,0.5l0.5,0.5l0.6,0.4l0.6,0.4l0.7,0.3
	l0.7,0.2l0.7,0.2l0.7,0.1l0.7,0l19.5-0.1l0.7,0l0.7-0.1l0.7-0.2l0.7-0.2l0.7-0.3l0.6-0.4l0.6-0.4l0.5-0.5l0.5-0.5l0.4-0.6l0.4-0.6
	l0.3-0.7l0.2-0.7l0.2-0.7l0.1-0.7l0-0.7L290.9,480z M351.6,480.2l0-0.7l-0.1-0.7l-0.2-0.7l-0.3-0.7l-0.3-0.7l-0.4-0.6l-0.4-0.6
	l-0.5-0.5l-0.5-0.5l-0.6-0.4l-0.6-0.4l-0.7-0.3l-0.7-0.2l-0.7-0.2l-0.7-0.1l-0.7,0l-19.1,0.1l-0.7,0l-0.7,0.1l-0.7,0.2l-0.7,0.3
	l-0.7,0.3l-0.6,0.4l-0.6,0.4l-0.5,0.5l-0.5,0.5l-0.4,0.6l-0.4,0.6l-0.3,0.7l-0.2,0.7l-0.2,0.7l-0.1,0.7l0,0.7l0.1,19.7l0,0.7
	l0.1,0.7l0.2,0.7l0.3,0.7l0.3,0.7l0.4,0.6l0.4,0.6l0.5,0.5l0.5,0.5l0.6,0.4l0.6,0.4l0.7,0.3l0.7,0.2l0.7,0.2l0.7,0.1l0.7,0l19.1-0.1
	l0.7,0l0.7-0.1l0.7-0.2l0.7-0.3l0.7-0.3l0.6-0.4l0.6-0.4l0.5-0.5l0.5-0.5l0.4-0.6l0.4-0.6l0.3-0.7l0.2-0.7l0.2-0.7l0.1-0.7l0-0.7
	L351.6,480.2z M290.9,534.9l0-0.7l-0.1-0.7l-0.2-0.7l-0.2-0.7l-0.3-0.7l-0.4-0.6l-0.4-0.6l-0.5-0.5l-0.5-0.5l-0.6-0.4l-0.6-0.4
	l-0.7-0.3l-0.7-0.2l-0.7-0.2l-0.7-0.1l-0.7,0l-19.6,0.1l-0.7,0l-0.7,0.1l-0.7,0.2l-0.7,0.2l-0.7,0.3l-0.6,0.4l-0.6,0.4l-0.5,0.5
	l-0.5,0.5l-0.4,0.6l-0.4,0.6l-0.3,0.7l-0.2,0.7l-0.2,0.7l-0.1,0.7l0,0.7l0.1,19.6l0,0.7l0.1,0.7l0.2,0.7l0.2,0.7l0.3,0.7l0.4,0.6
	l0.4,0.6l0.5,0.5l0.5,0.5l0.6,0.4l0.6,0.4l0.7,0.3l0.7,0.2l0.7,0.2l0.7,0.1l0.7,0l19.6-0.1l0.7,0l0.7-0.1l0.7-0.2l0.7-0.2l0.7-0.3
	l0.6-0.4l0.6-0.4l0.5-0.5l0.5-0.5l0.4-0.6l0.4-0.6l0.3-0.7l0.2-0.7l0.2-0.7l0.1-0.7l0-0.7L290.9,534.9z M351.6,534.9l0-0.7l-0.1-0.7
	l-0.2-0.7L351,532l-0.3-0.7l-0.4-0.6l-0.4-0.6l-0.5-0.5l-0.5-0.5l-0.6-0.4l-0.6-0.4L347,528l-0.7-0.2l-0.7-0.2l-0.7-0.1l-0.7,0
	l-19.3,0.1l-0.7,0l-0.7,0.1l-0.7,0.2l-0.7,0.2l-0.7,0.3l-0.6,0.4l-0.6,0.4l-0.5,0.5l-0.5,0.5l-0.4,0.6l-0.4,0.6l-0.3,0.7l-0.2,0.7
	l-0.2,0.7l-0.1,0.7l0,0.7l0.1,19.5l0,0.7l0.1,0.7l0.2,0.7l0.2,0.7l0.3,0.7l0.4,0.6l0.4,0.6l0.5,0.5l0.5,0.5l0.6,0.4l0.6,0.4l0.7,0.3
	l0.7,0.2l0.7,0.2l0.7,0.1l0.7,0l19.3-0.1l0.7,0l0.7-0.1l0.7-0.2l0.7-0.2l0.7-0.3l0.6-0.4l0.6-0.4l0.5-0.5l0.5-0.5l0.4-0.6l0.4-0.6
	l0.3-0.7l0.2-0.7l0.2-0.7l0.1-0.7l0-0.7L351.6,534.9z M439.7,534.9l0-0.7l-0.1-0.7l-0.2-0.7l-0.2-0.7l-0.3-0.7l-0.4-0.6l-0.4-0.6
	l-0.5-0.5l-0.5-0.5l-0.6-0.4l-0.6-0.4l-0.7-0.3l-0.7-0.2l-0.7-0.2l-0.7-0.1l-0.7,0l-19.1,0.1l-0.7,0l-0.7,0.1l-0.7,0.2l-0.7,0.2
	l-0.7,0.3l-0.6,0.4l-0.6,0.4l-0.5,0.5l-0.5,0.5l-0.4,0.6l-0.4,0.6l-0.3,0.7l-0.2,0.7l-0.2,0.7l-0.1,0.7l0,0.7l0.1,19.5l0,0.7
	l0.1,0.7l0.2,0.7l0.2,0.7l0.3,0.7l0.4,0.6l0.4,0.6l0.5,0.5l0.5,0.5l0.6,0.4l0.6,0.4l0.7,0.3l0.7,0.2l0.7,0.2l0.7,0.1l0.7,0l19.1-0.1
	l0.7,0l0.7-0.1l0.7-0.2l0.7-0.2l0.7-0.3l0.6-0.4l0.6-0.4l0.5-0.5l0.5-0.5l0.4-0.6l0.4-0.6l0.3-0.7l0.2-0.7l0.2-0.7l0.1-0.7l0-0.7
	L439.7,534.9z M495.6,535.1l0-0.7l-0.1-0.7l-0.2-0.7l-0.3-0.7l-0.3-0.7l-0.4-0.6l-0.4-0.6l-0.5-0.5l-0.6-0.5l-0.6-0.4l-0.6-0.4
	l-0.7-0.3l-0.7-0.2l-0.7-0.2l-0.7-0.1l-0.7,0l-19.3,0.1l-0.7,0l-0.7,0.1l-0.7,0.2l-0.7,0.3l-0.7,0.3l-0.6,0.4l-0.6,0.4l-0.5,0.5
	l-0.5,0.6l-0.4,0.6l-0.4,0.6l-0.3,0.7l-0.2,0.7l-0.2,0.7l-0.1,0.7l0,0.7l0.1,19.3l0,0.7l0.1,0.7l0.2,0.7l0.3,0.7l0.3,0.7l0.4,0.6
	l0.4,0.6l0.5,0.5l0.6,0.5l0.6,0.4l0.6,0.4l0.7,0.3l0.7,0.2l0.7,0.2l0.7,0.1l0.7,0l19.3-0.1l0.7,0l0.7-0.1l0.7-0.2l0.7-0.3l0.7-0.3
	l0.6-0.4l0.6-0.4l0.5-0.5l0.5-0.6l0.4-0.6l0.4-0.6l0.3-0.7l0.2-0.7l0.2-0.7l0.1-0.7l0-0.7L495.6,535.1z"/>
<path class="st0" d="M596.8,392.9l-2.8-1.3l-2.7-1.3l-2.6-1.3l-2.6-1.3l-2.6-1.3l-2.5-1.3l-2.5-1.4l-2.5-1.4l-0.1,0l-0.1-0.1
	l-0.1-0.1l0-0.1l0-0.1v-0.1l0-0.1l0-0.1l0.1-0.1l0.7-0.8l1.1-1.2l0.4-0.5l0.3-0.4l0.3-0.4l0.3-0.4l0.2-0.4l0.2-0.4l0.2-0.5l0.1-0.6
	l0.3-1.8l0.3-1.7l0.2-1.7l0.1-1.7l0-0.1l0-0.1l0-0.1l0.1-0.1l0,0l0,0l0.1-0.1l0.1,0l0.1,0l0.1,0l0.8,0l0.8,0.1l0.8,0.2l0.7,0.2
	l0.3,0.1l2.4,1.1l2.4,1.1l2.4,1.1l2.4,1.2l2.4,1.2l2.4,1.3l2.4,1.3l2.4,1.4l1,0.6l0.9,0.6l0.4,0.3l0.4,0.3l0.4,0.3l0.4,0.4l0.3,0.3
	l0.3,0.4l0.3,0.4l0.2,0.4l0.2,0.4l0.2,0.4l0.2,0.4l0.1,0.4l0.1,0.5l0.1,0.5l0.1,0.5l0,0.5l0,0.5l0,0.5l0,0.5l-0.1,0.5l-0.1,0.5
	l-0.2,0.5l-0.2,0.5l-0.3,0.5l-0.3,0.5l-0.3,0.5l-0.4,0.5l-0.4,0.4l-0.4,0.4l-0.5,0.4l-0.5,0.3l-0.5,0.3l-0.6,0.2l-0.6,0.2l-0.6,0.2
	l-0.6,0.1l-0.7,0.1l-0.7,0l-0.7,0l-0.7-0.1l-0.8-0.2l-0.8-0.2l-0.8-0.3L596.8,392.9z"/>
<path class="st0" d="M557,382.7L557,382.7l0.2,0.2l0.1,0.1l0,0.1l0,0.1l0,0.1l-0.1,0.1l-0.1,0.1l0,0l-0.1,0l-2.6,1.8l-2.7,1.9
	l-2.8,1.9l-2.9,1.9l-3,1.9l-3.1,1.9l-3.2,1.9l-3.2,2l-0.9,0.5l-0.9,0.4l-0.4,0.2l-0.4,0.1l-0.4,0.1l-0.4,0.1l-0.4,0.1l-0.4,0l-0.4,0
	h-0.4l-0.4,0l-0.4-0.1l-0.4-0.1l-0.4-0.1l-0.3-0.1l-0.3-0.1l-0.3-0.2l-0.3-0.2l-0.3-0.2l-0.3-0.2l-0.3-0.3l-0.3-0.3l-0.4-0.5
	l-0.4-0.5L523,397l-0.3-0.5l-0.3-0.5l-0.3-0.5l-0.2-0.5l-0.2-0.5l-0.2-0.6l-0.1-0.6l-0.1-0.5l0-0.5l0-0.5l0.1-0.5l0.1-0.5l0.2-0.5
	l0.2-0.6l0.3-0.5l0.3-0.5l0.4-0.5l0.4-0.5l0.5-0.4l0.5-0.4l0.5-0.4l19-12.9l0.6-0.4l0.6-0.4l0.7-0.4l0.7-0.4l1.6-0.8l2-0.9l0.1,0
	l0.2,0l0.1,0l0.1,0.1l0.1,0.1l0.1,0.1l0.1,0.1l0,0.1l0,0.1l0.1,0.8l0.1,0.8l0.2,0.8l0.2,0.7l0.2,0.7l0.2,0.7l0.2,0.7l0.3,0.7
	l0.3,0.6l0.3,0.6l0.3,0.6l0.4,0.6l0.4,0.6l0.4,0.5l0.4,0.5l0.4,0.5l0,0l0,0l0,0l0.4,0.4l0.4,0.4l0.4,0.4L557,382.7z"/>
<path class="st0" d="M565.2,510.3V392.7l0-0.2l0.1-0.2l0.1-0.1l0.1-0.1l0.1,0l0.2,0l14.7-0.1l0.1,0l0.1,0l0.1,0.1l0.1,0.1l0.1,0.1
	l0.1,0.1l0,0.1l0,0.1l0.4,91.9l0,0.2l-0.1,0.2l-15.1,25.8l-0.1,0.1l-0.1,0.1l-0.2,0.1l-0.2,0l-0.1,0l-0.1,0l-0.1-0.1l-0.1-0.1
	l-0.1-0.1l0-0.1l0-0.1L565.2,510.3z"/>
</svg>
