<?xml version="1.0" encoding="UTF-8"?>
<svg id="katman_1" data-name="katman 1" xmlns="http://www.w3.org/2000/svg" version="1.1" viewBox="0 0 1318.65 1419.96">
  <defs>
    <style>
      .cls-1 {
        fill: #269816;
      }

      .cls-1, .cls-2 {
        stroke-width: 0px;
      }

      .cls-2 {
        fill: #78c83a;
      }
    </style>
  </defs>
  <path class="cls-2" d="M843.82,799.46l1.5.54c-2.79,13.82-7.34,27.73-15.39,39.45-17.47,25.4-42.07,40.71-72.11,46.43l-1.23-.85c6.24-9.1,11.46-18.88,17.82-27.89,9.61-13.61,21.85-26.45,35.25-36.35,10.79-7.98,22.7-14.36,34.16-21.32Z"/>
  <path class="cls-2" d="M599.95,529.21l.67,1.53c-1.51,6-1.61,12.17-2.38,18.29-1.08,8.62-2.64,17.31-4.9,25.7-13.59,50.52-52.48,89.14-88.12,125.2l-.89-.63c4.25-9.44,9.45-18.52,14.24-27.7,9.14-17.55,18.31-35.11,27.23-52.77,9.1-18.02,18.21-36,27.54-53.91,3.62-6.96,6.61-14.55,11.11-20.98,4.18-5.97,9.78-10.34,15.51-14.73Z"/>
  <path class="cls-2" d="M820.88,734.9l2.98-.14c4.05,5.63,6.83,12.82,9.98,19.01,3.39,6.65,8.25,13.89,10.02,21.15l.26,1.13c1.25,5.35,1.26,10.75,1.43,16.22-6.56,3.37-13.43,6.15-19.86,9.79-22.52,12.74-42.64,30.56-57.4,51.85-7.46,10.75-13.91,22.19-21.65,32.73l-46.02.17-27.79.04c11.87-19.04,23.44-38.29,35.08-57.47,9.97-16.43,19.9-33.12,31.86-48.2,13.76-17.34,29.7-32.82,50.98-40.27,9.87-3.46,19.78-4.82,30.13-6Z"/>
  <path class="cls-2" d="M779.27,646.63c3.08,1.39,8.93,16,10.72,19.66,10.1,20.64,21.18,40.87,30.8,61.72l-13.51,1.61c-12.3,2.1-24.39,5.74-35.15,12.19-29.35,17.6-47.9,47.78-65.21,76.32-13.88,22.89-27.18,46.66-42.55,68.57l-17.14-.02-41.09.43c12.55-15.14,23.2-32.02,33.82-48.55,20.69-32.18,39.79-65.19,59.69-97.84,12.9-21.18,25.47-43.05,42-61.67,11.32-12.74,23.64-22.73,37.61-32.42Z"/>
  <path class="cls-2" d="M650.83,511.54c11.96-.68,23.56,1.42,35.13,4.12-12.65,22.01-25.94,43.63-38.82,65.49-23.35,39.61-46.27,79.41-70.48,118.52-23.94,38.68-47.64,80.1-78.49,113.76-5.1,5.53-10.43,10.62-16.46,15.13-8.91-25.55-8.69-52.35-1.51-78.31,2.87-10.37,7.2-21.62,13.68-30.32,2.92-3.92,7.46-7.21,11.02-10.57,7.47-7.08,14.88-14.24,22.03-21.63,30.26-31.25,60.25-66.65,72.23-109.37,5.06-18.03,7.01-36.71,8.91-55.28,13.73-7.05,27.42-10.36,42.76-11.55Z"/>
  <path class="cls-2" d="M751.58,589.52c2.65.96,22.25,44.02,25.61,50.96-13.37,6.68-24.06,16.34-34.22,27.19-21.5,22.97-37.04,50.01-53.34,76.71-22.17,36.32-43.11,73.53-67.2,108.63-7.83,11.4-15.8,23.49-25.1,33.74h-40.64c-10.18-.07-18.07-2.28-27.39-6.35,10.61-6.71,19.89-16.71,28.66-25.63,23.68-24.05,41.96-52.11,59.64-80.68,19.64-31.75,37.99-64.25,57.71-95.95,14.14-22.73,28.19-45.83,47.01-65.08,8.91-9.11,18.8-16.34,29.25-23.54Z"/>
  <path class="cls-2" d="M1264.54,740.68c5.98,5.98,10.47,15.26,14.45,22.7,15.57,29.11,27.95,59.36,33.5,92.08.96,5.65,2.47,12.3,2.21,18.01-.16,3.4-1.84,7.56-2.97,10.77-4.47,12.73-11.07,25.49-18.91,36.47-36.5,51.16-94.52,72.47-154.14,82.62l-39.12,4.71,4.45-42.8c10.72-6.75,20.64-14.7,30.84-22.2,38.66-28.43,77.09-58.9,105.91-97.74,17.87-24.08,33.65-54.94,28.91-85.91l-.21-1.33c-.45-3.05-.86-5.72-2.01-8.61l-2.92-8.78Z"/>
  <path class="cls-2" d="M484.88,51.29c20.38-.78,38.43.82,58.16,5.86,45.54,11.64,80.88,46.65,108.82,82.81,9.27,11.99,18.56,24.6,26.22,37.68,2.91,4.97,7.18,11.62,5.43,17.6-1.21,4.13-4.06,8.64-8.09,10.49-3.49,1.6-7.24.62-10.67-.58-12.39-4.35-24.5-12.02-36.33-17.84-19.54-9.6-39.4-18.22-59.7-26.07l-43.53-13.87c-30.24-7.42-63.32-10.8-94.24-5.92-26.09,4.12-54.06,15.45-76.58,29.13,6.02-8.49,12.89-16.44,19.57-24.42,24.12-28.82,51.42-55.02,82.06-76.9,9.18-6.56,18.55-13.32,28.87-17.98Z"/>
  <path class="cls-2" d="M212.69,991.44c3.07,3.57,5.21,8.86,7.08,13.16,4.1,9.44,7.5,19.07,10.43,28.94,11.8,39.66,16.9,80.77,28.54,120.35,9.97,33.87,24.89,65.37,48.88,91.65,17.19,18.84,37,34.56,56.46,50.91l-44.58-2.19c-33.83-5.52-66.58-14.58-94.54-35.28-31.57-23.37-52.03-57.55-57.86-96.31-9.05-60.13,9.87-122.79,45.59-171.22Z"/>
  <path class="cls-2" d="M692.74,518.41c14.37,5.73,33.33,19.79,41.44,32.94,5.9,9.57,10.05,20.74,15.43,30.71-8.98,6.41-17.85,12.24-25.85,19.93-28.08,26.96-48.09,61.47-67.53,94.89-11.27,19.38-22.94,38.53-34.52,57.72-24.99,41.41-51.52,83.74-89.27,114.79l-10.06,8.18c-16.74-10.04-28.09-24.84-37.63-41.51,26.02-23.48,44.74-50.45,64.06-79.43,20.42-30.63,39.29-62.12,57.96-93.84,28.36-48.18,56.32-96.98,85.97-144.37Z"/>
  <path class="cls-1" d="M1154.78,562.85c11.23,14.63,21.2,30.42,31.32,45.83,27.45,41.82,52.73,84.8,76.83,128.62-1.32,4.04-.44,9.05-.76,13.32-.56,7.42-2.17,14.07-4.52,21.1-16.94,50.64-64.22,88.88-107.02,117.94-15.26,10.36-30.86,20.56-47.38,28.83-1.72-1.38-1.27-1.76-1.53-3.85-11.36-72.77-41.66-138.25-82.16-199.21-10.39-15.64-21.75-30.63-32.7-45.87l167.92-106.71Z"/>
  <path class="cls-1" d="M277.45,1036.19c6.51,2.35,12.71,6.02,18.93,9.07,11.66,5.7,23.42,11.31,35.49,16.07,27.39,10.81,55.53,19.16,84.34,25.22,12.9,2.71,26.42,5.52,39.62,6,16.69.61,33.88-1.4,50.5-2.87,16.38-1.45,32.8-2.52,49.19-3.94,1.22,36.01,2.59,72.06,4.16,108.06,1.02,23.36,2.37,46.73,2.95,70.11.12,4.65,1.51,14.39-.29,18.2l-6.1.72-179.34,12.06c-13.61-9.4-25.96-22.3-36.37-35.07-36.77-45.12-55.19-102.12-61.93-159.28-2.48-21-3.36-43.3-1.15-64.35Z"/>
  <path class="cls-1" d="M435.22,159.67c45.51-2.59,94.75,13.92,134.05,35.71,14.5,8.04,28.36,17.55,42.08,26.86-9.56,6.39-19.58,11.71-29.02,18.44-44.78,31.94-81.19,73.18-108.5,120.87-7.31,12.76-14.3,26.23-19.88,39.83-2.45,5.96-20.23,57.13-20.78,57.71-.35.37-.84.59-1.26.89l-179.5-89.93c6.54-15.02,14.54-29.59,21.88-44.25,14.35-28.69,28.78-57.32,43.24-85.96,6.09-12.06,11.91-24.24,18.05-36.27,2.4-4.71,4.72-10.8,8-14.85,2.83-3.49,8.83-6.05,12.82-8.23,25.34-13.89,50.28-19.22,78.82-20.82Z"/>
  <path class="cls-2" d="M1317.63,909.95l.89.94c.41,20.96-.06,42.28-2.88,63.09-7.9,58.15-31.9,114.43-65.84,162.13-10.41,14.63-22.27,27.27-34.96,39.88-60.29,59.91-140.34,97.84-225.12,105.42-17.16,1.53-34.45,1.49-51.65.78-10.13-.42-23-2.8-32.88-1l-1.01.2c-5.55,1.02-10.44,3.11-14.31,7.38-4.17,4.61-7.27,11.84-6.72,18.16.7,7.99,5.62,16.73,8.8,24.01,6.19,14.18,12.26,28.42,18.57,42.54,3.33,7.46,6.57,14.96,9.92,22.41,2.88,6.41,6.67,13.38,7.13,20.47-.9,2.4-1.01,2.31-3.26,3.59-1.96-.12-2.97-.68-4.52-1.79-10.45-7.45-20.23-16.26-30.34-24.2-19.8-15.53-39.85-30.75-59.66-46.29-33.87-26.57-68.7-52.04-102.24-79.05l-33.01-25.8c-11.29-9.42-19.6-22.21-20.69-37.28-.85-11.68.65-22.57,6.42-32.84,4.71-8.38,12.61-16.08,18.66-23.58,13.87-17.19,27.84-34.28,41.77-51.42,45.97-56.6,91.03-113.94,137.89-169.82l-14.94,131.2c12.07.06,24.5-1.64,36.51-2.85,18.32-1.86,36.66-3.7,55-5.37,26.21-2.39,52.42-5.2,78.65-7.36,50.88-4.18,105.25-6.51,153.96-22.55,54.94-18.08,103.87-59.28,129.86-111.01Z"/>
  <path class="cls-2" d="M647.27.58c62.65-3.54,127.3,9.14,183.55,37.23,64.53,32.23,118.48,84.67,153.22,147.69,8.14,14.76,14.39,30.42,21.09,45.86,4.72,10.87,9.96,21.52,14.81,32.34,3.66,8.15,6.76,17.91,11.38,25.44.99,1.6,2.16,2.29,3.78,3.17,2.33.25,4.97.67,7.2-.23,8.68-3.49,17.26-12.4,24.71-18.17,11.7-9.05,23.84-17.52,35.65-26.43,8.93-6.74,17.77-13.59,26.7-20.32,3.93-2.97,9.57-8.12,14.3-9.44,2.27-.63,3.37-.44,5.41.61.48,1.92.28,3.19-.16,5.07-1.32,5.65-3.61,11.16-5.45,16.67-3.67,10.96-7.4,21.87-11.18,32.79-9.65,27.85-18.9,55.9-28.14,83.89-11.32,34.29-23.04,68.44-34.37,102.72-5.16,15.63-8.78,33.52-16.05,48.23-5.29,10.72-13.65,18.52-23.83,24.55-13.17,7.81-27.46,8.63-42.01,4.82-11.35-2.86-22.51-8.12-33.45-12.32-16.88-6.48-33.92-12.58-50.94-18.71-35.9-12.95-71.84-25.78-107.66-38.94-18.68-6.86-37.76-13.24-56.07-21.04,8-5.48,17.82-9.05,26.7-12.98,15.37-6.81,30.8-13.47,46.04-20.57,5.95-2.77,14.66-5.84,19.06-10.61,2.19-2.37,2.64-5.5,2.21-8.62-.37-2.69-1.7-5.27-3.01-7.62-5-8.94-10.83-17.48-16.01-26.34-21.14-36.14-42.64-72.05-63.82-108.15-17.33-29.55-34.5-59.19-52.39-88.39-6.23-10.17-11.9-20.7-18.76-30.47-12.62-17.97-29.04-35.84-46.44-49.33-39.18-30.38-85.83-46.78-135.51-40.31C543.47,18.15,595.62,3.69,647.27.58Z"/>
  <path class="cls-2" d="M287.82,526.39c9.58-1.66,20.67,1.22,29.38,5.16,10.83,4.9,20.71,14.76,26.3,25.23,4.53,8.49,7.02,18.14,9.74,27.31,3.41,11.5,6.85,22.98,10.44,34.42,15.55,49.53,30.05,99.4,45.42,149,6.39,20.64,11.72,42.2,19.57,62.31l-103.4-73.13c-7.97,13.87-16.91,27.19-25.38,40.76-27.31,43.73-55.89,86.63-83.43,130.21-16.37,25.9-33.44,50.96-46.2,78.96-10.47,22.98-17.68,46.69-22.32,71.47-10.63,56.78.38,110.89,32.96,158.62l-31.02-21.92-38.54-33.68C41.22,1111.07,1.52,1014.14,1.69,915.2c.18-105.66,49.48-202.28,123.23-275.83L0,575.86l287.82-49.48Z"/>
</svg>